<?xml version="1.0" encoding="utf-8"?>
<!-- Generator: Adobe Illustrator 23.0.2, SVG Export Plug-In . SVG Version: 6.00 Build 0)  -->
<svg version="1.1" id="Layer_1" xmlns="http://www.w3.org/2000/svg" xmlns:xlink="http://www.w3.org/1999/xlink" x="0px" y="0px"
	 width="100px" height="100px" viewBox="0 0 100 100" style="enable-background:new 0 0 100 100;" xml:space="preserve">
<style type="text/css">
	.st0{fill:none;}
	.st1{fill:#F4F4F4;}
	.st2{fill:#F7F8FB;}
	.st3{fill:#FBC316;}
	.st4{fill:#773600;}
	.st5{fill:#FF7900;}
</style>
<g id="Landing">
	<g id="Landing---Desktop" transform="translate(-565.000000, -859.000000)">
		<g id="about-us" transform="translate(160.000000, 664.000000)">
			<g id="about2" transform="translate(385.000000, 183.000000)">
				<g id="icon" transform="translate(2.000000, 0.000000)">
					<path id="Rectangle_44-2" class="st0" d="M42.5,12h50c13.8,0,25,11.2,25,25v50c0,13.8-11.2,25-25,25h-50c-13.8,0-25-11.2-25-25
						V37C17.5,23.2,28.7,12,42.5,12z"/>
					<g id="Group-2" transform="translate(18.000000, 12.000000)">
						<g id="Group_145" transform="translate(1.198250, 1.014500)">
							<path id="Path_580" class="st1" d="M80.1,37.3c-0.9-7.6-4.8-14.4-10.9-19c-7.5-5.8-15.9-7.6-25-5.3
								c-13.4,3.3-22.6,15.6-21.9,29.4c0.1,2-0.3,4-1.1,5.7c-1.3,2.7-2.4,5.3-3.3,7.7c-0.4,1.2-0.3,2.5,0.4,3.5
								c0.7,1.1,2,1.8,3.3,1.8H23v8.8c0,1.8,0.6,3.5,1.9,4.7c1.3,1.3,3,1.9,4.8,1.9h7.5v7.7c0,1.6,0.6,2.2,2.2,2.2h29.9
								c1.6,0,2.2-0.6,2.2-2.2V63c0-0.5,0.2-1,0.6-1.4C78.6,54.7,81.3,46.5,80.1,37.3z M68.9,59.8c-0.6,0.5-0.9,1.3-0.9,2.1
								c0,5.1,0,10.3,0,15.4v5.6H40.7v-7.8c0.1-0.6-0.1-1.1-0.5-1.5s-1-0.6-1.5-0.5H30c-2.4,0-3.5-1.1-3.5-3.5v-9.8
								c0-1.5-0.6-2.2-2.2-2.2H22c-0.5,0-0.8-0.1-1-0.3c-0.1-0.2-0.1-0.5,0.1-1c0.4-1,0.9-2,1.3-3c1-2.3,2-4.7,3-7
								c0.2-0.5,0.3-1.1,0.3-1.6c-0.5-3.9-0.1-7.8,1-11.5c3-9.3,11.1-16.1,20.8-17.5s19.3,2.9,24.8,11s5.9,18.6,1,27.1
								C72.3,56.1,70.7,58.1,68.9,59.8L68.9,59.8z"/>
							<path id="Path_581" class="st1" d="M60.8,41.7c-0.2-3.1-1.8-5.9-4.4-7.6S50.7,32,47.8,33c-3.6,1.1-6.3,4.2-6.7,8
								c-0.6,3.5,0.8,7.1,3.7,9.3c0.6,0.4,1,1.1,1,1.9c0.1,1.4,0.3,2.7,0.4,4l0.1,0.6c0,0.5,0.2,1,0.6,1.3c0.4,0.3,0.9,0.5,1.4,0.4
								h5.3c1.4,0,2-0.5,2.1-1.8c0.1-0.8,0.2-1.7,0.3-2.5c0.1-0.9,0.2-1.9,0.3-2.8c0-0.3,0.2-0.6,0.4-0.8
								C59.5,48.6,61.1,45.2,60.8,41.7z M57.4,42.7c0,2.1-1.1,4.1-2.9,5.2c-0.1,0-0.1,0.1-0.2,0.2l-0.6,0.3
								c-0.5,0.3-0.9,0.9-0.9,1.5c-0.1,1.2-0.3,2.4-0.4,3.6c0,0.4-0.1,0.7-0.1,1.1c0,0.1,0,0.2-0.1,0.4v0.1h-2.7
								c0-0.4-0.1-0.9-0.2-1.3c-0.1-1.1-0.3-2.2-0.3-3.2s-0.6-2-1.5-2.4c-1.5-0.9-2.6-2.4-3-4.2c-0.4-1.7-0.1-3.5,0.9-4.9
								c1.6-2.4,4.6-3.5,7.4-2.7C55.6,37.2,57.5,39.8,57.4,42.7L57.4,42.7z"/>
							<path id="Path_582" class="st1" d="M39.5,33.5c0.3,0.3,0.7,0.7,1,1s0.7,0.5,1.2,0.5c0.3,0,0.6-0.1,0.8-0.2
								c0.8-0.3,1-1.1,1-1.8c0,0,0-0.1-0.1-0.2c-0.1-0.2-0.2-0.5-0.4-0.7c-0.7-0.8-1.5-1.5-2.4-2.4c-0.3-0.3-0.8-0.5-1.2-0.6
								c-0.5,0-0.9,0.2-1.3,0.5c-0.3,0.3-0.5,0.8-0.5,1.3s0.2,0.9,0.6,1.2C38.7,32.7,39.1,33.1,39.5,33.5z"/>
							<path id="Path_583" class="st1" d="M59.4,34.8c0.2,0.1,0.5,0.2,0.7,0.2c0.4,0,0.8-0.2,1.1-0.5c0.6-0.6,1.2-1.2,1.8-1.8
								l0.3-0.3c0.4-0.3,0.6-0.7,0.7-1.2c0-0.5-0.2-1-0.5-1.3s-0.8-0.5-1.3-0.5s-0.9,0.2-1.3,0.6c-0.7,0.7-1.4,1.4-2.1,2.1
								c-0.2,0.2-0.3,0.5-0.4,0.8c-0.1,0.1-0.1,0.3-0.2,0.4v0.1C58.4,33.9,58.8,34.5,59.4,34.8L59.4,34.8z"/>
							<path id="Path_584" class="st1" d="M49.1,27.7v1.6c0,0.5,0.2,0.9,0.5,1.2s0.8,0.5,1.2,0.5c0.5,0,0.9-0.2,1.2-0.5
								s0.5-0.8,0.5-1.2c0-1,0-2.1,0-3.1c0-0.5-0.2-0.9-0.6-1.2c-0.3-0.3-0.8-0.5-1.2-0.5c-0.9,0-1.7,0.8-1.7,1.7v1.1
								C49.1,27.4,49.1,27.6,49.1,27.7z"/>
							<path id="Path_585" class="st1" d="M39.4,42.3c0-0.9-0.7-1.6-1.6-1.6c-0.4,0-0.7,0-1.1,0h-2.1c-0.7,0-1.3,0.4-1.5,1
								c-0.3,0.6-0.1,1.3,0.3,1.8c0.3,0.3,0.7,0.5,1.1,0.5c0.6,0,1.2,0.1,1.8,0.1s1.2,0,1.8,0c0.4,0,0.8-0.2,1.1-0.6
								C39.4,43.2,39.5,42.8,39.4,42.3z"/>
							<path id="Path_586" class="st1" d="M67,40.7c-1,0-2,0-3,0c-0.5,0-0.9,0.1-1.3,0.5c-0.3,0.3-0.5,0.8-0.5,1.2
								c0,0.5,0.2,0.9,0.5,1.2s0.8,0.5,1.2,0.5s0.7,0,1.1,0h2.1c1,0,1.7-0.8,1.7-1.8C68.8,41.4,68,40.7,67,40.7L67,40.7z"/>
							<path id="Path_587" class="st1" d="M40.6,50.4c-0.9,0.8-1.7,1.6-2.5,2.4c-0.5,0.5-0.6,1.2-0.3,1.8s0.9,1,1.5,1.1
								c0.1,0,0.2-0.1,0.3-0.1c0.2-0.1,0.5-0.2,0.7-0.3c0.8-0.7,1.7-1.6,2.6-2.6c0.5-0.6,0.5-1.6-0.1-2.2S41.3,49.8,40.6,50.4
								L40.6,50.4z"/>
							<path id="Path_588" class="st1" d="M61.4,50.7c-0.2-0.2-0.5-0.3-0.8-0.4l-0.2-0.1c-0.7,0-1.4,0.4-1.8,1
								c-0.3,0.6-0.2,1.4,0.3,1.9c0.7,0.8,1.4,1.5,2.1,2.1c0.3,0.3,0.8,0.5,1.3,0.6c0.5,0,0.9-0.2,1.2-0.6c0.3-0.3,0.5-0.8,0.5-1.3
								s-0.2-0.9-0.6-1.2C62.8,52,62.2,51.3,61.4,50.7z"/>
						</g>
						<path id="Path_589" class="st2" d="M70.4,78.6v5.6H43.1v-7.8c0.1-0.6-0.1-1.1-0.5-1.5s-1-0.6-1.5-0.5h-8.7
							c-2.4,0-3.5-1.1-3.5-3.5v-9.8c0-1.5-0.6-2.2-2.2-2.2h-2.3c-0.5,0-0.8-0.1-1-0.3c-0.1-0.2-0.1-0.5,0.1-1c0.4-1,0.9-2,1.3-3
							c1-2.3,2-4.7,3-7c0.2-0.5,0.3-1.1,0.3-1.6c-0.5-3.9-0.1-7.8,1-11.5c3-9.3,11.1-16.1,20.8-17.5s19.3,2.9,24.8,11
							s5.9,18.6,1,27.1c-1.2,2.2-2.8,4.2-4.7,5.9c-0.6,0.5-0.9,1.3-0.9,2.1C70.4,68.4,70.4,73.6,70.4,78.6z"/>
						<path id="Path_590" class="st3" d="M53.6,54.6c0,0.4-0.1,0.7-0.1,1.1c0,0.1,0,0.2-0.1,0.4c0,0,0,0.1,0,0.2h-2.7
							c0-0.4-0.1-0.9-0.2-1.3c-0.1-1.1-0.3-2.2-0.3-3.2s-0.6-2-1.5-2.4c-1.5-0.9-2.6-2.4-3-4.2c-0.4-1.7-0.1-3.5,0.9-4.9
							c1-1.5,2.5-2.5,4.3-2.8s3.6,0.1,5,1.2c1.7,1.3,2.7,3.3,2.6,5.4c0,2.1-1.1,4.1-2.9,5.2c-0.1,0-0.2,0.1-0.2,0.2l-0.6,0.3
							c-0.4,0-0.8,0.6-0.8,1.2C53.9,52.2,53.7,53.4,53.6,54.6z"/>
						<g id="Group_146" transform="translate(0.500000, 0.500000)">
							<path id="Path_591" class="st4" d="M80.1,37.3c-0.9-7.6-4.8-14.4-10.9-19c-7.5-5.8-15.9-7.6-25-5.3
								c-13.4,3.3-22.6,15.6-21.9,29.4c0.1,2-0.3,4-1.1,5.7c-1.3,2.7-2.4,5.3-3.3,7.7c-0.4,1.2-0.3,2.5,0.4,3.5
								c0.7,1.1,2,1.8,3.3,1.8H23v8.8c0,1.8,0.6,3.5,1.9,4.7c1.3,1.3,3,1.9,4.8,1.9h7.5v7.7c0,1.6,0.6,2.2,2.2,2.2h29.9
								c1.6,0,2.2-0.6,2.2-2.2V63c0-0.5,0.2-1,0.6-1.4C78.6,54.7,81.3,46.5,80.1,37.3z M68,77.3v5.6H40.7v-7.8
								c0.1-0.6-0.1-1.1-0.5-1.5s-1-0.6-1.5-0.5H30c-2.4,0-3.5-1.1-3.5-3.5v-9.8c0-1.5-0.6-2.2-2.2-2.2H22c-0.5,0-0.8-0.1-1-0.3
								c-0.1-0.2-0.1-0.5,0.1-1c0.4-1,0.9-2,1.3-3c1-2.3,2-4.7,3-7c0.2-0.5,0.3-1.1,0.3-1.6c-0.5-3.9-0.1-7.8,1-11.5
								c3-9.3,11.1-16.1,20.8-17.5s19.3,2.9,24.8,11s5.9,18.6,1,27.1c-1.2,2.2-2.8,4.2-4.7,5.9c-0.6,0.5-0.9,1.3-0.9,2.1
								C68,67,68,72.3,68,77.3L68,77.3z"/>
							<path id="Path_592" class="st4" d="M60.8,41.7c-0.2-3.1-1.8-5.9-4.4-7.6c-2.5-1.7-5.7-2.1-8.7-1.2c-3.6,1.1-6.3,4.2-6.7,8
								c-0.6,3.5,0.8,7.1,3.7,9.3c0.6,0.4,1,1.1,1,1.9c0.1,1.4,0.3,2.7,0.4,4l0.1,0.6c0,0.5,0.2,1,0.6,1.3c0.4,0.3,0.9,0.5,1.4,0.4
								h5.3c1.4,0,2-0.5,2.1-1.8c0.1-0.8,0.2-1.6,0.3-2.5s0.2-1.9,0.3-2.8c0-0.3,0.2-0.6,0.4-0.8C59.5,48.6,61.1,45.2,60.8,41.7z
								 M52.4,53.4c0,0.4-0.1,0.7-0.1,1.1c0,0.1,0,0.2-0.1,0.4V55h-2.7c0-0.4-0.1-0.9-0.2-1.3c-0.2-1.1-0.3-2.2-0.3-3.2
								s-0.6-2-1.5-2.4c-1.5-0.9-2.6-2.4-3-4.2c-0.4-1.7-0.1-3.5,0.9-4.9c1-1.5,2.5-2.5,4.3-2.8s3.6,0.1,5,1.2
								c1.7,1.3,2.7,3.3,2.6,5.4c0,2.1-1.1,4.1-2.9,5.2c-0.1,0-0.2,0.1-0.2,0.1l-0.6,0.3c-0.5,0.3-0.9,0.9-0.9,1.5
								C52.7,51,52.5,52.2,52.4,53.4z"/>
							<path id="Path_593" class="st5" d="M39.5,33.5c0.3,0.3,0.7,0.7,1,1s0.7,0.5,1.2,0.5c0.3,0,0.6-0.1,0.8-0.2
								c0.8-0.3,1-1.1,1-1.8c0,0,0-0.1-0.1-0.2c-0.1-0.2-0.2-0.5-0.4-0.7c-0.7-0.8-1.5-1.5-2.4-2.4c-0.3-0.3-0.8-0.5-1.2-0.6
								c-0.5,0-0.9,0.2-1.3,0.5c-0.3,0.3-0.5,0.8-0.5,1.3s0.2,0.9,0.6,1.2C38.7,32.7,39.1,33.1,39.5,33.5z"/>
							<path id="Path_594" class="st5" d="M59.4,34.7c0.2,0.1,0.5,0.2,0.7,0.2c0.4,0,0.8-0.2,1.1-0.5c0.6-0.6,1.2-1.2,1.8-1.8
								l0.3-0.3c0.4-0.3,0.6-0.7,0.7-1.2c0-0.5-0.2-1-0.5-1.3s-0.8-0.5-1.3-0.5s-0.9,0.2-1.3,0.6c-0.7,0.7-1.4,1.4-2.1,2.1
								c-0.2,0.2-0.3,0.5-0.4,0.8c-0.1,0.1-0.1,0.3-0.2,0.4v0.1C58.4,33.8,58.8,34.4,59.4,34.7L59.4,34.7z"/>
							<path id="Path_595" class="st5" d="M49.1,27.7v1.6c0,0.5,0.2,0.9,0.5,1.2c0.3,0.3,0.8,0.5,1.2,0.5c1,0,1.7-0.8,1.7-1.7
								c0-1,0-2.1,0-3.1c0-0.5-0.2-0.9-0.6-1.2c-0.3-0.3-0.8-0.5-1.2-0.5c-0.9,0-1.7,0.8-1.7,1.7v1.1C49.1,27.4,49.1,27.6,49.1,27.7
								z"/>
							<path id="Path_596" class="st5" d="M39.4,42.3c0-0.9-0.7-1.6-1.6-1.6c-0.4,0-0.7,0-1.1,0h-2.1c-0.7,0-1.3,0.4-1.5,1
								S33,43,33.4,43.5c0.3,0.3,0.7,0.5,1.1,0.5c0.6,0,1.2,0.1,1.8,0.1s1.2,0,1.8,0C38.9,44,39.5,43.2,39.4,42.3z"/>
							<path id="Path_597" class="st5" d="M67,40.7c-1,0-2,0-3,0c-0.5,0-0.9,0.1-1.3,0.5c-0.3,0.3-0.5,0.8-0.5,1.2
								c0,0.5,0.2,0.9,0.5,1.2s0.8,0.5,1.2,0.5s0.7,0,1.1,0h2.1c1,0,1.7-0.8,1.7-1.8c0-0.5-0.2-0.9-0.5-1.2S67.5,40.7,67,40.7
								L67,40.7z"/>
							<path id="Path_598" class="st5" d="M40.6,50.4c-0.9,0.8-1.7,1.6-2.5,2.4c-0.5,0.5-0.6,1.2-0.3,1.8s0.9,1,1.5,1.1
								c0.1,0,0.2-0.1,0.3-0.1c0.2-0.1,0.5-0.2,0.7-0.3c0.8-0.7,1.7-1.6,2.6-2.6c0.5-0.7,0.4-1.6-0.1-2.2
								C42.2,49.9,41.3,49.9,40.6,50.4L40.6,50.4z"/>
							<path id="Path_599" class="st5" d="M61.4,50.7c-0.2-0.2-0.5-0.3-0.8-0.4l-0.2-0.1c-0.7,0-1.4,0.4-1.8,1
								c-0.3,0.6-0.2,1.4,0.3,1.9c0.7,0.8,1.4,1.5,2.1,2.1c0.3,0.3,0.8,0.5,1.3,0.6c0.5,0,0.9-0.2,1.2-0.6c0.3-0.3,0.5-0.8,0.5-1.3
								s-0.2-0.9-0.6-1.2C62.8,52,62.2,51.3,61.4,50.7z"/>
						</g>
					</g>
				</g>
			</g>
		</g>
	</g>
</g>
</svg>
