<?xml version="1.0" encoding="utf-8"?>
<!-- Generator: Adobe Illustrator 23.0.2, SVG Export Plug-In . SVG Version: 6.00 Build 0)  -->
<svg version="1.1" id="Layer_1" xmlns="http://www.w3.org/2000/svg" xmlns:xlink="http://www.w3.org/1999/xlink" x="0px" y="0px"
	 width="100px" height="100px" viewBox="0 0 100 100" style="enable-background:new 0 0 100 100;" xml:space="preserve">
<style type="text/css">
	.st0{fill:none;}
	.st1{fill:#FBC316;}
	.st2{fill:#773600;}
	.st3{fill:#FF7900;}
</style>
<g id="Landing">
	<g id="Landing---Desktop" transform="translate(-188.000000, -859.000000)">
		<g id="about-us" transform="translate(160.000000, 664.000000)">
			<g id="about1" transform="translate(5.000000, 183.000000)">
				<g id="icon1" transform="translate(2.000000, 0.000000)">
					<path id="Rectangle_43-2" class="st0" d="M45.5,12.5h50c13.8,0,25,11.2,25,25v50c0,13.8-11.2,25-25,25h-50
						c-13.8,0-25-11.2-25-25v-50C20.5,23.7,31.7,12.5,45.5,12.5z"/>
					<g id="Group_103" transform="translate(21.000000, 12.000000)">
						<path id="Path_436" class="st1" d="M30.4,28.8c0.9,0,1.6-0.7,1.7-1.6c0-0.7-0.4-1.3-1-1.6s-1.3-0.2-1.8,0.3s-0.7,1.2-0.4,1.8
							C29.1,28.4,29.7,28.8,30.4,28.8z"/>
						<path id="Path_437" class="st1" d="M50.2,19.7c0.9,0,1.6-0.7,1.7-1.6c0-0.7-0.4-1.3-1-1.6c-0.6-0.3-1.3-0.2-1.8,0.3
							s-0.7,1.2-0.4,1.8C48.9,19.3,49.5,19.7,50.2,19.7z"/>
						<path id="Path_438" class="st1" d="M69.8,29.1c0.9,0,1.6-0.7,1.7-1.6c0-0.7-0.4-1.3-1-1.6c-0.6-0.3-1.3-0.2-1.8,0.3
							S68,27.4,68.3,28C68.5,28.6,69.1,29.1,69.8,29.1z"/>
						<rect id="Rectangle_1" x="27.5" y="45.5" class="st1" width="51.1" height="34"/>
						<path id="Path_439" class="st2" d="M47.8,83.5v-6.4H24.9c-1.7,0.1-3.2-1-3.5-2.6c-0.1-0.3-0.1-0.6-0.1-1V41.9
							c-0.1-1,0.3-1.9,0.9-2.6c0.7-0.7,1.6-1,2.6-1c3.7,0,7.4,0,11.1,0c0.5,0,0.9,0.1,1.3,0.4c0.4,0.3,0.6,0.8,0.6,1.2
							c0,0.5-0.2,0.9-0.6,1.3c-0.4,0.3-0.8,0.5-1.3,0.4H24.6v32h49.7v-32H63.5c-0.4,0-0.9-0.1-1.3-0.3c-0.6-0.3-0.9-1-0.8-1.7
							c0.1-0.7,0.7-1.3,1.4-1.3c0.2,0,0.5,0,0.7,0H74c2.4,0,3.8,1.4,3.8,3.8v31.2c0,2.4-1.4,3.8-3.8,3.8H51.2v6.4c0.2,0,0.5,0,0.7,0
							h8.7c0.6-0.1,1.1,0.1,1.5,0.5s0.6,1.1,0.4,1.7c-0.2,0.6-0.8,1.1-1.4,1.1H38.2c-0.6,0-1.2-0.3-1.5-0.8s-0.3-1,0-1.5
							c0.2-0.5,0.7-0.8,1.2-0.9c0.2,0,0.5,0,0.7,0H47C47.3,83.5,47.6,83.5,47.8,83.5z"/>
						<path id="Path_440" class="st2" d="M51.3,22.3V64c0.1,0.8-0.3,1.5-1,1.9c-0.4,0.2-0.9,0.2-1.4,0c-0.4-0.2-0.8-0.6-0.9-1
							c-0.1-0.3-0.1-0.7-0.1-1V23c0.1-0.4-0.2-0.8-0.6-1c-2.3-1.1-3.4-3.6-2.6-6c0.8-2.4,3.2-3.9,5.7-3.4c2.5,0.4,4.3,2.6,4.2,5.2
							C54.6,19.7,53.4,21.3,51.3,22.3z M51.3,17.7c0-1-0.8-1.7-1.7-1.8c-0.9,0-1.6,0.8-1.7,1.7c0,0.9,0.8,1.7,1.7,1.7
							c0.4,0,0.8-0.1,1.2-0.4C51.1,18.5,51.3,18.1,51.3,17.7L51.3,17.7z"/>
						<path id="Path_441" class="st2" d="M55.3,43.2c0-4.2,0.1-8.3,0-12.4c-0.1-1.6,0.5-3.1,1.6-4.2S59.5,25,61,25
							c1.1,0,2.1,0,3.1,0c0.2,0,0.4-0.2,0.5-0.4c1-2.2,3.4-3.4,5.8-2.8c2.3,0.5,3.9,2.6,3.9,5s-1.6,4.4-3.9,4.9
							c-2.3,0.6-4.7-0.6-5.7-2.7c-0.1-0.3-0.4-0.5-0.8-0.5c-0.9,0-1.9,0-2.8,0c-1.8-0.1-2.6,1-2.6,2.6c0,8.2,0,16.5,0,24.8v0.6
							c0,0.4-0.1,0.9-0.4,1.2s-0.7,0.5-1.2,0.4c-0.4,0.1-0.9,0-1.3-0.3S55,57.1,55,56.6L55.3,43.2L55.3,43.2z M69.3,28.4
							c0.9,0,1.7-0.7,1.7-1.6c0-0.5-0.1-0.9-0.5-1.2c-0.3-0.3-0.7-0.5-1.2-0.5c-0.4,0-0.9,0.2-1.2,0.5s-0.5,0.8-0.5,1.2
							c0,0.4,0.1,0.9,0.5,1.2C68.5,28.2,68.9,28.4,69.3,28.4L69.3,28.4z"/>
						<path id="Path_442" class="st2" d="M43.8,43.2v12.7c0,0.3,0,0.6,0,0.9c-0.2,0.8-0.9,1.4-1.8,1.3c-0.9,0-1.5-0.7-1.6-1.5V30.8
							c0.1-0.9-0.3-1.7-1.1-2.1c-0.4-0.2-0.8-0.3-1.2-0.3c-1.1,0-2.1,0-3.2,0c-0.3,0-0.6,0.2-0.7,0.5c-1,2.1-3.3,3.3-5.6,2.8
							c-2.3-0.5-4-2.4-4.1-4.8c-0.1-2.3,1.4-4.4,3.7-5.1s4.7,0.3,5.8,2.4c0.2,0.5,0.7,0.8,1.2,0.7c1.2-0.1,2.4-0.1,3.6,0.1
							c2.9,0.4,4.8,2.7,4.8,5.7C43.8,34.8,43.8,39,43.8,43.2z M29.7,28.4c0.9,0,1.6-0.7,1.7-1.6c0-0.9-0.7-1.7-1.6-1.7
							s-1.7,0.7-1.7,1.6c0,0.4,0.2,0.9,0.5,1.2C28.8,28.2,29.2,28.4,29.7,28.4z"/>
						<path id="Rectangle_45" class="st3" d="M42,47.8L42,47.8c1,0,1.9,0.8,1.9,1.9v6.8c0,1-0.8,1.9-1.9,1.9l0,0
							c-1,0-1.9-0.8-1.9-1.9v-6.8C40.2,48.6,41,47.8,42,47.8z"/>
						<path id="Rectangle_46" class="st3" d="M49.5,56L49.5,56c1,0,1.9,0.8,1.9,1.9v6.8c0,1-0.8,1.9-1.9,1.9l0,0
							c-1,0-1.9-0.8-1.9-1.9v-6.8C47.7,56.8,48.5,56,49.5,56z"/>
						<path id="Rectangle_47" class="st3" d="M57,47.8L57,47.8c1,0,1.9,0.8,1.9,1.9v6.8c0,1-0.8,1.9-1.9,1.9l0,0
							c-1,0-1.9-0.8-1.9-1.9v-6.8C55.2,48.6,56,47.8,57,47.8z"/>
					</g>
				</g>
			</g>
		</g>
	</g>
</g>
</svg>
