<?xml version="1.0" encoding="utf-8"?>
<!-- Generator: Adobe Illustrator 23.0.2, SVG Export Plug-In . SVG Version: 6.00 Build 0)  -->
<svg version="1.1" id="Layer_1" xmlns="http://www.w3.org/2000/svg" xmlns:xlink="http://www.w3.org/1999/xlink" x="0px" y="0px"
	 width="100px" height="100px" viewBox="0 0 100 100" style="enable-background:new 0 0 100 100;" xml:space="preserve">
<style type="text/css">
	.st0{fill:none;}
	.st1{fill:#F4F4F4;}
	.st2{fill:#FF7900;}
	.st3{fill:#FBC316;}
	.st4{fill:#F7F8FB;}
	.st5{fill:#773600;}
</style>
<g id="Landing">
	<g id="Landing---Desktop" transform="translate(-945.000000, -860.000000)">
		<g id="about-us" transform="translate(160.000000, 664.000000)">
			<g id="about3" transform="translate(765.000000, 183.000000)">
				<g id="icon" transform="translate(2.000000, 0.000000)">
					<path id="Rectangle_48-2" class="st0" d="M43.5,12h50c13.8,0,25,11.2,25,25v50c0,13.8-11.2,25-25,25h-50c-13.8,0-25-11.2-25-25
						V37C18.5,23.2,29.7,12,43.5,12z"/>
					<g id="Group_112" transform="translate(18.000000, 13.000000)">
						<path id="Path_465" class="st1" d="M75.9,54c-0.5-0.1-0.5-0.4-0.5-0.8c0-1.8,0-3.6,0-5.4c0-0.2,0-0.5,0.2-0.7
							c0.1-0.2,0.4-0.3,0.6-0.4c2.8-0.9,4.7-3.5,4.6-6.5c-0.1-2.4-1.4-4.7-3.6-5.8s-4.8-1-6.8,0.4c-4.9-3.9-9.8-7.7-14.7-11.6
							c1.7-3.8,1.1-6.9-1.5-8.9c-2.4-1.9-5.9-1.8-8.2,0.1c-2.6,2.2-3.2,5.9-1.4,8.8c-0.1,0.1-0.1,0.1-0.1,0.2
							c-4.7,3.7-9.5,7.5-14.2,11.2c-0.3,0.1-0.6,0.1-0.8,0c-2.2-1.3-5-1.2-7.1,0.3c-2.1,1.3-3.2,3.8-2.8,6.2
							c0.3,2.6,2.1,4.8,4.7,5.5c0.2,0,0.4,0.1,0.5,0.3s0.2,0.4,0.1,0.6c0,1.8,0,3.6,0,5.4c0,0.6-0.1,0.8-0.8,1.1
							c-2.5,0.8-4.2,3-4.5,5.6c-0.3,2.6,1,5.1,3.2,6.4s5,1.2,7.2-0.3c4.9,3.9,9.8,7.7,14.7,11.6C43,80.9,43.5,84,46,86.1
							c2.3,1.9,5.6,2.1,8.1,0.4c1.2-0.8,2.1-2.1,2.5-3.4c0.6-1.9,0.3-4-0.8-5.6c5-3.9,9.8-7.8,14.7-11.6l0.3,0.2
							c2.2,1.4,5,1.4,7.2-0.2c2.1-1.3,3.3-3.8,2.9-6.3C80.4,56.8,78.5,54.7,75.9,54z M52.7,37.3c-0.6-0.3-1.2-0.5-1.9-0.5
							c-2.3,0-4.2,1.9-4.2,4.2c0,1.2,0.6,2.4,1.5,3.2c-1.4-0.7-2.2-2.1-2.2-3.6c0-2.3,1.9-4.2,4.2-4.2C51,36.3,51.9,36.7,52.7,37.3
							L52.7,37.3z M46.2,45.9c2.3,1.6,5.3,1.6,7.7,0c2,1.5,4,2.9,6,4.4c-0.1,0.1-0.2,0.3-0.3,0.4c-1.8,1.3-3.5,2.6-5.3,3.9
							c-0.2,0.1-0.5,0.2-0.8,0c-2.3-1.3-5.1-1.2-7.2,0.3c-2-1.5-4-2.9-6.1-4.5C42.2,48.8,44.2,47.4,46.2,45.9L46.2,45.9z M48.8,67.1
							c-0.8-0.2-1.5-0.6-2.1-1.1c0.7,0.4,1.4,0.7,2.1,0.8V67.1z M45.9,60.4c0-1.6,0.9-3,2.3-3.7s3.1-0.5,4.4,0.5
							c-1.3-0.6-2.8-0.6-4,0.2s-1.9,2.1-1.9,3.6c0,1.3,0.6,2.5,1.6,3.3C46.8,63.4,45.9,61.9,45.9,60.4L45.9,60.4z M51.3,66.9
							c2.2-0.5,4-1.9,4.8-4c0.9-2,0.7-4.4-0.5-6.2c1.6-1.2,3.2-2.3,4.8-3.5c1.6-1.1,1.7-1.2,3-0.3c-0.7-0.4-1.1-0.2-2.3,0.7
							c-1.6,1.2-3.2,2.3-4.8,3.5c1.2,1.9,1.4,4.2,0.5,6.2s-2.7,3.5-4.8,4v7.2c0,0.1,0,0.2,0.1,0.3c-0.1-0.1-0.3-0.1-0.4-0.2
							c-0.2-0.1-0.4-0.3-0.4-0.5C51.3,71.7,51.3,69.3,51.3,66.9L51.3,66.9z M69.2,54.1c-1.6-1.2-3.3-2.5-5.1-3.7
							c2-1.5,3.9-2.9,5.8-4.3c0.2-0.1,0.5-0.1,0.7,0c0.4,0.2,0.8,0.4,1.2,0.5c0.4,0,0.7,0.2,0.9,0.5h-0.1c-0.4-0.2-0.8-0.3-1.2-0.5
							c-0.2-0.1-0.5-0.1-0.7,0c-1.9,1.4-3.8,2.8-5.8,4.3c1.7,1.3,3.4,2.5,5,3.7C69.6,54.5,69.4,54.3,69.2,54.1L69.2,54.1z
							 M74.1,36.3c0.8,0,1.6,0.2,2.3,0.7c-0.4-0.1-0.8-0.2-1.2-0.2c-2.3,0-4.2,1.9-4.2,4.2c0,1.4,0.7,2.7,1.8,3.4
							c-1.7-0.6-2.8-2.1-2.8-3.9C70,38.2,71.8,36.3,74.1,36.3L74.1,36.3z M68.5,36.8c-1.4,2.2-1.4,5.1,0,7.3
							c-0.9,0.6-1.7,1.3-2.6,1.9c-1.1,0.8-2.2,1.7-3.4,2.5c-0.2,0.1-0.6,0.3-0.7,0.1c-2.1-1.5-4.1-3-6.2-4.5c1-1.5,1.3-3.3,0.9-5.1
							c-0.5-2.3-2.2-4.1-4.4-4.8c-0.3,0-0.5-0.2-0.7-0.4s-0.2-0.5-0.1-0.8c0-2,0-4,0-6c0-0.5,0.1-0.8,0.7-1c0.7-0.2,1.3-0.5,1.9-0.8
							C58.7,29,63.6,32.9,68.5,36.8L68.5,36.8z M50.1,15.6c1.4,0,2.7,0.7,3.4,1.9c-0.7-0.6-1.7-1-2.7-1.1c-2.3,0-4.2,1.9-4.2,4.2
							c0,0.8,0.2,1.6,0.7,2.3c-0.9-0.8-1.4-1.9-1.4-3.1c0-1.1,0.4-2.2,1.2-3S48.9,15.6,50.1,15.6L50.1,15.6z M46.2,25.2
							c0.6,0.3,1.2,0.6,1.8,0.8c0.2,0,0.5,0.1,0.6,0.3c0.1,0.2,0.2,0.4,0.1,0.7c0,2.3,0,4.5,0,6.9c-2.2,0.4-4,1.9-4.8,4
							c-0.9,2-0.7,4.4,0.5,6.2c-2.1,1.5-4.1,3-6.1,4.5c-0.2,0.1-0.4,0.2-0.6,0.1c-2.1-1.5-4.1-3-6.2-4.5c1.4-2.2,1.4-5.1,0-7.3
							C36.4,32.9,41.3,29.1,46.2,25.2L46.2,25.2z M27.2,47.4c0-0.2,0.2-0.4,0.4-0.5c0.7-0.3,1.4-0.6,2.3-0.9
							c0.2,0.2,0.5,0.3,0.7,0.5c-0.8,0.3-1.5,0.6-2.2,0.9c-0.2,0.1-0.4,0.3-0.4,0.5c0,2,0,4,0,5.9c0,0.1,0,0.2,0.1,0.3
							C28,54,27.8,54,27.7,53.9c-0.2-0.1-0.4-0.3-0.4-0.5L27.2,47.4z M21.8,40.5c0-2.3,1.9-4.2,4.2-4.2c1.2,0,2.3,0.6,3.1,1.5
							c-0.7-0.6-1.6-1-2.6-1c-1.1,0-2.2,0.4-3,1.2s-1.2,1.8-1.2,3c0,1,0.3,1.9,1,2.6C22.4,42.8,21.8,41.7,21.8,40.5L21.8,40.5z
							 M26.1,56.2c1.5,0,2.9,0.9,3.6,2.2c-0.8-0.9-1.9-1.5-3.1-1.5c-1.1,0-2.2,0.4-3,1.2s-1.2,1.8-1.2,3c0,0.7,0.2,1.3,0.5,1.9
							c-0.6-0.8-1-1.7-1-2.6c0-1.1,0.5-2.2,1.2-3S24.9,56.2,26.1,56.2L26.1,56.2z M31.5,64c1.4-2.2,1.4-5.1,0-7.3
							c2.1-1.5,4.1-3,6.2-4.5c0.1-0.1,0.5,0,0.6,0.1c0.2,0.1,0.4,0.3,0.5,0.4c-0.1,0-0.4-0.1-0.4,0c-2.1,1.5-4.1,3-6.2,4.5
							c1.4,2.2,1.4,5.1,0,7.3c4.7,3.7,9.3,7.4,14,11c0,0,0,0-0.1,0C41.3,71.7,36.5,67.9,31.5,64L31.5,64z M50,76.9
							c1.6,0,3,0.9,3.7,2.2c-0.8-1-2-1.5-3.2-1.5c-2.3,0-4.1,1.9-4.1,4.1c0,0.7,0.2,1.3,0.5,1.9c-0.6-0.8-1-1.7-1-2.6
							C45.9,78.8,47.7,77,50,76.9L50,76.9z M70,60.3c0-1.9,1.3-3.5,3.2-4c1.8-0.4,3.8,0.4,4.6,2.1c-1.1-1.3-2.9-1.8-4.6-1.3
							s-2.7,2.1-2.7,3.9c0,0.7,0.2,1.3,0.5,1.9C70.3,62.3,69.9,61.3,70,60.3L70,60.3z"/>
						<path id="Path_466" class="st2" d="M29.9,60.6c0-2.3-1.8-4.1-4.1-4.2c-1.7,0-3.2,1-3.9,2.5s-0.3,3.3,0.8,4.5
							c1.2,1.2,3,1.6,4.5,1S29.9,62.3,29.9,60.6L29.9,60.6z"/>
						<path id="Path_467" class="st2" d="M49.8,77.2c-1.8,0-3.4,1.2-3.9,3s0.2,3.6,1.7,4.6s3.5,0.9,4.9-0.3s1.9-3.1,1.2-4.8
							C53,78.2,51.4,77.2,49.8,77.2z"/>
						<path id="Path_468" class="st2" d="M73.8,56.4c-1.7,0-3.2,1-3.8,2.5c-0.6,1.5-0.3,3.3,0.9,4.5c1.2,1.2,2.9,1.5,4.5,0.9
							c1.5-0.6,2.6-2.1,2.6-3.8C77.9,58.3,76.1,56.4,73.8,56.4z"/>
						<path id="Path_469" class="st3" d="M50,44.6c2.3,0,4.1-1.8,4.1-4.1s-1.8-4.1-4.1-4.2c-1.5,0-2.9,0.8-3.6,2s-0.8,2.9,0,4.2
							C47.1,43.8,48.5,44.6,50,44.6z"/>
						<path id="Path_470" class="st2" d="M29.9,40.5c0-2-1.4-3.7-3.3-4.1s-3.9,0.7-4.6,2.5c-0.8,1.8-0.1,3.9,1.5,5s3.8,0.9,5.2-0.5
							C29.4,42.6,29.9,41.6,29.9,40.5z"/>
						<path id="Path_471" class="st2" d="M54.2,20.1c0-2.3-1.9-4.1-4.1-4.1S46,17.9,46,20.1s1.9,4.1,4.1,4.1S54.1,22.4,54.2,20.1z"
							/>
						<path id="Path_472" class="st2" d="M78.5,40.5c0-2.3-1.9-4.1-4.1-4.1s-4.1,1.9-4.1,4.1s1.9,4.1,4.1,4.1S78.4,42.7,78.5,40.5z"
							/>
						<path id="Path_473" class="st2" d="M54.2,60.4c0-2.3-1.9-4.1-4.1-4.1S46,58.2,46,60.4s1.9,4.1,4.1,4.1S54.1,62.6,54.2,60.4z"
							/>
						<path id="Path_474" class="st4" d="M68.5,64c-1.4-2.2-1.4-5.1,0-7.3c-1.6-1.2-3.2-2.3-4.8-3.5c-1.6-1.2-1.6-1.2-3.3,0
							c-1.6,1.2-3.2,2.3-4.8,3.5c1.2,1.9,1.4,4.2,0.5,6.2s-2.7,3.5-4.8,4v7.2c0,0.2,0.2,0.4,0.4,0.5c0.7,0.3,1.4,0.6,2.2,0.9
							C58.7,71.8,63.6,67.9,68.5,64z"/>
						<path id="Path_475" class="st4" d="M46.2,75.6c0.7-0.3,1.4-0.6,2.1-0.8c0.4-0.1,0.5-0.3,0.5-0.7V67c-2.2-0.4-4-1.9-4.8-4
							c-0.9-2-0.7-4.4,0.5-6.2c-2.1-1.5-4.1-3-6.1-4.5c-0.2-0.1-0.4-0.1-0.6-0.1c-2.1,1.5-4.1,3-6.2,4.5c1.4,2.2,1.4,5.1,0,7.3
							C36.5,67.9,41.3,71.7,46.2,75.6z"/>
						<path id="Path_476" class="st4" d="M64.2,50.4c1.8,1.3,3.4,2.5,5.1,3.7c0.7,0.5,1.3,0.9,2.1,0.2c0.3-0.2,0.6-0.3,0.9-0.4
							c0.7-0.1,0.7-0.4,0.7-1c0-1.7-0.1-3.3,0-5c0-0.8-0.2-1.2-1-1.4c-0.4-0.2-0.8-0.3-1.2-0.5c-0.2-0.1-0.5-0.1-0.7,0
							C68,47.5,66.2,48.9,64.2,50.4z"/>
						<path id="Path_477" class="st4" d="M29.9,46c-0.8,0.3-1.6,0.6-2.3,0.9c-0.2,0.1-0.4,0.3-0.4,0.5c0,2,0,4,0,5.9
							c0,0.2,0.2,0.4,0.4,0.5c0.7,0.3,1.5,0.6,2.3,0.9c1.9-1.4,3.9-2.9,6-4.4C33.8,48.8,31.8,47.4,29.9,46z"/>
						<path id="Path_478" class="st5" d="M43.7,22.9c-1.8-2.9-1.2-6.6,1.4-8.8c2.4-2,5.8-2,8.2-0.1c2.7,2.1,3.3,5.2,1.5,8.9
							c4.9,3.8,9.8,7.7,14.7,11.6c2.1-1.5,5-1.6,7.2-0.2c2.2,1.3,3.5,3.9,3.2,6.5s-2.1,4.8-4.6,5.6c-0.2,0-0.5,0.2-0.6,0.4
							s-0.2,0.5-0.2,0.7c0,1.8,0,3.6,0,5.4c0,0.4,0.1,0.7,0.5,0.8c2.6,0.7,4.5,2.9,4.8,5.6c0.4,2.5-0.7,5-2.9,6.3
							c-2.1,1.5-5,1.6-7.2,0.2l-0.3-0.2c-4.9,3.8-9.8,7.7-14.7,11.6c1.1,1.7,1.3,3.7,0.8,5.6c-0.7,2.1-2.3,3.8-4.5,4.4
							c-2.1,0.6-4.4,0.1-6.1-1.3c-2.5-2.1-3-5.2-1.3-8.8c-4.9-3.8-9.8-7.7-14.7-11.6c-1.8,1.2-4,1.5-6.1,0.8c-2.7-1-4.4-3.5-4.4-6.3
							c0.1-2.8,1.9-5.3,4.6-6.2c0.6-0.2,0.8-0.4,0.8-1.1c0-1.8,0-3.6,0-5.4c0-0.5-0.1-0.7-0.6-0.8c-2.6-0.7-4.4-2.9-4.7-5.5
							c-0.4-2.5,0.7-4.9,2.8-6.2c2.1-1.5,4.9-1.6,7.1-0.3c0.3,0.1,0.5,0.1,0.8,0c4.7-3.7,9.5-7.4,14.2-11.2
							C43.6,23,43.6,23,43.7,22.9L43.7,22.9z M67.8,36.3c-4.9-3.9-9.8-7.7-14.6-11.5c-0.6,0.3-1.3,0.6-1.9,0.8
							c-0.6,0.1-0.7,0.4-0.7,1c0,2,0,4,0,6c0,0.7,0.2,1,0.8,1.2c2.2,0.7,3.9,2.5,4.4,4.8c0.4,1.7,0.1,3.6-0.9,5.1
							c2.1,1.5,4.1,3,6.2,4.5c0.1,0.1,0.5,0,0.7-0.2c1.1-0.8,2.2-1.6,3.4-2.5c0.9-0.7,1.8-1.3,2.6-1.9
							C66.4,41.3,66.4,38.5,67.8,36.3L67.8,36.3z M67.8,63.5c-1.4-2.2-1.4-5.1,0-7.3c-1.6-1.2-3.2-2.3-4.8-3.5
							c-1.6-1.2-1.6-1.2-3.3,0c-1.6,1.2-3.2,2.3-4.8,3.5c1.2,1.9,1.4,4.2,0.5,6.2s-2.7,3.5-4.8,4v7.2c0,0.2,0.2,0.4,0.4,0.5
							c0.7,0.3,1.4,0.6,2.2,0.9C58,71.2,62.9,67.4,67.8,63.5z M43.7,43.6c-1.2-1.8-1.4-4.2-0.5-6.2c0.8-2.1,2.7-3.5,4.8-4
							c0-2.3,0-4.6,0-6.9c0-0.6-0.2-0.9-0.8-1c-0.6-0.2-1.2-0.5-1.8-0.8c-4.8,3.8-9.8,7.7-14.6,11.5c1.4,2.2,1.4,5.1,0,7.3
							c2.1,1.5,4.1,3,6.2,4.5c0.2,0.1,0.4,0,0.6-0.1C39.6,46.6,41.7,45.1,43.7,43.6L43.7,43.6z M45.4,75.1c0.7-0.3,1.4-0.6,2.1-0.8
							c0.4-0.1,0.5-0.3,0.5-0.7v-7.1c-2.2-0.4-4-1.9-4.8-4c-0.9-2-0.7-4.4,0.5-6.2c-2.1-1.5-4.1-3-6.1-4.5c-0.2-0.1-0.4-0.1-0.6-0.1
							c-2.1,1.5-4.1,3-6.2,4.5c1.4,2.2,1.4,5.1,0,7.3C35.7,67.4,40.6,71.2,45.4,75.1L45.4,75.1z M39.4,49.9c2.1,1.5,4.1,3,6.1,4.5
							c2.2-1.5,5-1.6,7.2-0.3c0.3,0.1,0.6,0.1,0.8,0c1.8-1.3,3.6-2.6,5.3-3.9c0.1-0.1,0.2-0.2,0.3-0.4c-2.1-1.5-4-3-6-4.4
							c-2.3,1.6-5.3,1.6-7.7,0C43.5,46.9,41.5,48.4,39.4,49.9L39.4,49.9z M49.3,23.4c2.3,0,4.1-1.9,4.1-4.1s-1.9-4.1-4.1-4.1
							c-2.3,0-4.2,1.9-4.2,4.2C45.2,21.6,47.1,23.4,49.3,23.4z M49.3,55.7c-2.3,0-4.1,1.9-4.1,4.2s1.9,4.1,4.2,4.1s4.1-1.9,4.1-4.2
							c0-1.1-0.4-2.2-1.2-2.9C51.4,56.1,50.4,55.7,49.3,55.7z M29.4,59.9c0-2.3-1.8-4.1-4.1-4.2c-1.7,0-3.2,1-3.9,2.5
							s-0.3,3.3,0.8,4.5c1.2,1.2,3,1.6,4.5,1C28.3,63.1,29.4,61.6,29.4,59.9z M49.2,76.4c-2,0-3.6,1.4-4,3.4
							c-0.3,1.9,0.7,3.8,2.5,4.5s3.9,0.1,5-1.6s0.8-3.8-0.6-5.2C51.4,76.8,50.3,76.4,49.2,76.4L49.2,76.4z M49.3,44.1
							c2.3,0,4.1-1.8,4.1-4.1s-1.8-4.1-4.1-4.2c-2.3,0-4.1,1.8-4.2,4.1C45.2,42.2,47,44.1,49.3,44.1L49.3,44.1z M29.4,40
							c0-2.3-1.9-4.1-4.1-4.1s-4.1,1.9-4.1,4.1s1.9,4.1,4.1,4.1S29.4,42.3,29.4,40L29.4,40z M73.4,55.7c-1.7,0-3.2,1-3.8,2.5
							s-0.3,3.3,0.9,4.5c1.2,1.2,2.9,1.5,4.5,0.9c1.5-0.6,2.6-2.1,2.6-3.8c0-1.1-0.4-2.1-1.2-2.9C75.5,56.1,74.5,55.7,73.4,55.7
							L73.4,55.7z M69.2,39.9c0,2.3,1.9,4.1,4.2,4.1c2.3,0,4.1-1.9,4.1-4.2s-1.9-4.1-4.1-4.1C71,35.8,69.2,37.7,69.2,39.9L69.2,39.9
							z M63.4,49.9c1.8,1.3,3.4,2.5,5.1,3.7c0.7,0.5,1.3,0.9,2.1,0.2c0.3-0.2,0.6-0.3,0.9-0.4c0.7-0.1,0.7-0.4,0.7-1
							c0-1.6-0.1-3.3,0-5c0-0.8-0.2-1.2-1-1.4c-0.4-0.2-0.8-0.3-1.2-0.5c-0.2-0.1-0.5-0.1-0.7,0C67.3,47,65.4,48.4,63.4,49.9
							L63.4,49.9z M29.2,45.5c-0.8,0.3-1.6,0.6-2.3,0.9c-0.2,0.1-0.4,0.3-0.4,0.5c0,2,0,4,0,5.9c0,0.2,0.2,0.4,0.4,0.5
							c0.7,0.3,1.5,0.6,2.3,0.9c1.9-1.4,3.9-2.9,6-4.4C33.1,48.4,31.1,46.9,29.2,45.5L29.2,45.5z"/>
					</g>
				</g>
			</g>
		</g>
	</g>
</g>
</svg>
