<?xml version="1.0" encoding="UTF-8"?>
<svg width="248px" height="300px" viewBox="0 0 248 300" version="1.1" xmlns="http://www.w3.org/2000/svg" xmlns:xlink="http://www.w3.org/1999/xlink">
    <!-- Generator: Sketch 52.5 (67469) - http://www.bohemiancoding.com/sketch -->
    <title>Group 46</title>
    <desc>Created with Sketch.</desc>
    <defs>
        <polygon id="path-1" points="0.0778709818 0.278550551 41.4540004 0.278550551 41.4540004 79.3579915 0.0778709818 79.3579915"></polygon>
        <polygon id="path-3" points="0.472762908 0.272525215 54.9963142 0.272525215 54.9963142 74.7975357 0.472762908 74.7975357"></polygon>
        <polygon id="path-5" points="0.000131957155 0.525364915 144.914345 0.525364915 144.914345 159.930314 0.000131957155 159.930314"></polygon>
    </defs>
    <g id="Landing" stroke="none" stroke-width="1" fill="none" fill-rule="evenodd">
        <g id="Landing---Desktop" transform="translate(-206.000000, -3240.000000)">
            <g id="work-toghether" transform="translate(206.000000, 3240.000000)">
                <g id="Group-46" transform="translate(123.867596, 150.000000) scale(-1, 1) translate(-123.867596, -150.000000) ">
                    <g id="Group-3" transform="translate(75.261324, 0.000000)">
                        <mask id="mask-2" fill="white">
                            <use xlink:href="#path-1"></use>
                        </mask>
                        <g id="Clip-2"></g>
                        <path d="M10.0806097,0.278412225 C10.0806097,0.278412225 -19.8402328,53.6238263 23.8159159,79.3579915 L41.4540004,75.4488994 C41.4540004,75.4488994 10.3320916,28.4692469 10.0806097,0.278412225" id="Fill-1" fill="#2E261D" mask="url(#mask-2)"></path>
                    </g>
                    <g id="Group-6" transform="translate(84.668990, 0.000000)">
                        <mask id="mask-4" fill="white">
                            <use xlink:href="#path-3"></use>
                        </mask>
                        <g id="Clip-5"></g>
                        <path d="M54.9963142,61.2461761 C54.9963142,61.2461761 9.4219637,33.2114554 0.472762908,0.271972099 C0.472762908,0.271972099 1.3205673,55.2517737 27.1285669,74.7975357 C27.1285669,74.7975357 48.2249979,72.8851346 54.9963142,61.2461761" id="Fill-4" fill="#83776E" mask="url(#mask-4)"></path>
                    </g>
                    <path d="M60.0074602,136.790551 C60.0074602,136.790551 62.9661506,128.245614 69.2177767,125.376642 C75.4694028,122.50767 75.3648652,119.795713 75.3648652,119.795713 C76.3290874,87.1930059 90.4086572,74.5780679 96.740062,70.5328586 C102.973807,68.9833657 108.882934,66.2686542 114.116694,62.5608899 C142.550933,55.9579843 159.642837,68.0109728 164.934368,72.6236409 C168.488647,82.4329638 174.985112,91.1115012 183.658985,97.1786266 C184.64384,98.0325693 185.652078,98.8603429 186.701581,99.635778 C187.071589,103.04053 186.890024,103.223715 186.79649,103.117661 C187.103225,103.820097 189.326026,110.030465 200.301103,153.09948 C219.1784,227.206559 175.510551,238.265117 144.927789,249.928322 C114.350528,261.586018 104.178741,288.501742 104.178741,288.501742 L34.4947735,174.537575 L60.0074602,136.790551 Z" id="Fill-7" fill="#83776E"></path>
                    <path d="M94.0766551,116.179051 C94.0766551,116.179051 83.7757227,145.116958 67.7939682,147.38676 C67.7939682,147.38676 56.8546951,144.824614 56.445993,142.563086 L59.7265448,137.678736 C59.7265448,137.678736 61.6853075,132.860578 63.264073,131.172706 C64.8428385,129.49035 92.0153751,110.031555 94.0766551,116.179051" id="Fill-9" fill="#756A63"></path>
                    <path d="M137.979094,172.398823 C137.979094,172.398823 159.096116,159.262449 186.062718,179.981967 C186.062718,179.981967 156.828498,174.485432 140.479218,212.195122 L137.979094,172.398823 Z" id="Fill-11" fill="#998E87"></path>
                    <path d="M21.9512195,166.381198 C21.9512195,166.381198 9.11525784,153.230754 6.08746854,167.952085 C3.06250498,182.666471 8.59532016,190.663964 13.5841788,192.223739 C20.2472933,194.304365 21.9512195,166.381198 21.9512195,166.381198" id="Fill-13" fill="#D3D2C9"></path>
                    <path d="M35.4771415,253.65218 C35.4771415,253.65218 29.7639759,262.492017 45.8931327,270.581302 C62.0222895,278.665118 98.0986834,274.298517 102.840583,266.765653 C107.592251,259.228687 132.402796,221.259496 136.225063,204.42744 C140.051516,187.600853 127.734858,170.889105 114.871164,185.21932 C102.000494,199.55637 48.1510472,214.16958 48.1510472,214.16958 L35.4771415,253.65218 Z" id="Fill-15" fill="#7C0002"></path>
                    <path d="M11.739181,222.830638 C11.739181,222.830638 7.6958067,254.840614 32.7379282,257.897654 C32.7379282,257.897654 54.3196286,264.795837 64.1289901,247.240434 C64.1289901,247.240434 81.7515819,251.596101 85.6430016,240.258778 C85.6430016,240.258778 96.3627094,239.528044 103.048713,228.587562 C103.048713,228.587562 118.115704,218.629603 118.118467,202.787456 C118.118467,202.787456 21.2252936,217.675817 11.739181,222.830638" id="Fill-17" fill="#FFFFFF"></path>
                    <path d="M172.473868,62.746943 C172.473868,62.746943 165.989862,44.0513486 141.596092,39.7212544 C141.596092,39.7212544 146.704207,46.1393891 145.786491,50.0251614 C145.786491,50.0251614 121.520901,33.9614248 103.484321,48.7644321 C103.484321,48.7644321 112.702381,50.5744305 115.240075,55.7045769 C115.240075,55.7045769 101.32844,67.6508395 110.058325,87.1137751 C110.058325,87.1137751 114.267815,75.1906826 124.400864,72.2030947 C124.400864,72.2030947 122.444071,81.4943294 128.287176,88.8501742 C128.287176,88.8501742 138.32068,65.1580027 157.782243,68.2941522 L158.650868,68.8188882 L172.473868,62.746943 Z" id="Fill-19" fill="#2E261D"></path>
                    <g id="Group-23" transform="translate(0.000000, 140.069686)">
                        <mask id="mask-6" fill="white">
                            <use xlink:href="#path-5"></use>
                        </mask>
                        <g id="Clip-22"></g>
                        <path d="M17.6652725,18.2003468 C17.6652725,18.2003468 43.6746572,-19.076084 78.3195687,14.6395221 C112.967222,48.3578993 103.514747,29.1710121 130.367123,29.9760079 C157.22087,30.7810036 141.304087,77.5220233 127.162383,94.7497642 C113.028904,111.981662 104.540044,135.44431 103.536678,148.557012 C102.488078,162.293205 54.0825232,168.774737 44.7684906,137.299541 C44.7684906,137.299541 36.6826218,129.257896 34.3524002,118.968914 C34.3524002,118.968914 94.8737368,155.066255 116.89433,90.4684614 C138.921778,25.8775956 123.939824,51.1511377 118.872277,58.8159167 C113.800619,66.4765391 88.064007,99.7889546 33.4285359,88.8321447 C-21.202823,77.8697926 7.57404247,59.4795879 7.57404247,59.4795879 C7.57404247,59.4795879 6.16768523,41.6574526 17.6652725,18.2003468" id="Fill-21" fill="#F0EFE4" mask="url(#mask-6)"></path>
                    </g>
                    <path d="M161.499861,67.2102741 C161.499861,67.2102741 198.305795,53.5857797 210.584955,39.3841279 C222.857257,25.1755889 247.089156,-2.22767587 247.637762,19.7056802 C248.198711,41.6390362 248.704799,103.162079 176.668799,99.1123356 C176.668799,99.1123356 134.83764,82.1213197 161.499861,67.2102741" id="Fill-24" fill="#83776E"></path>
                    <path d="M168.802392,73.8442923 C168.802392,73.8442923 205.792572,66.2625531 232.022121,28.2229965 C232.022121,28.2229965 237.728889,31.1400986 230.434935,52.2836363 C223.140981,73.4326265 200.823395,93.1203394 177.107118,89.4521516 C177.107118,89.4521516 165.50099,85.49498 180.804634,83.0427058 C180.804634,83.0427058 179.558925,77.397977 167.40097,78.2335768 C167.40097,78.2335768 163.928829,75.1924297 168.802392,73.8442923" id="Fill-26" fill="#2E261D"></path>
                    <path d="M57.9863502,191.918554 C56.5840056,197.6308 58.2620607,202.920068 61.7427304,203.727943 C65.217802,204.538537 69.1799154,200.559006 70.5850591,194.84812 C71.9874037,189.127714 70.3093486,183.838446 66.8300784,183.031931 C63.3522078,182.219976 59.3900944,186.200867 57.9863502,191.918554" id="Fill-28" fill="#2E261D"></path>
                    <path d="M79.4411609,189.198606 C79.4411609,189.198606 79.5206807,186.801833 78.4581314,183.403551 C78.2086037,182.553267 77.872701,181.637357 77.4367131,180.705754 C76.996612,179.771298 76.5057828,178.778349 75.8326064,177.848173 C75.15943,176.919423 74.4396386,175.930754 73.4607222,175.11471 C72.5147106,174.298666 71.4137725,173.538261 70.1510526,173.077453 C68.9020431,172.656591 67.5447221,172.369834 66.2545816,172.509646 C64.9479887,172.562432 63.7428522,172.969027 62.6748188,173.416996 C61.5971882,173.874951 60.673113,174.504104 59.8477522,175.107577 C59.0402147,175.74529 58.3135681,176.381576 57.7267667,177.046395 C57.0960923,177.657002 56.6176024,178.311834 56.1884696,178.876788 C55.7442554,179.426049 55.4124658,179.955336 55.1533409,180.397598 C54.6268649,181.263575 54.3554007,181.781449 54.3554007,181.781449 C54.3554007,181.781449 54.851714,181.481852 55.6715908,180.931165 C56.4791282,180.379051 57.649989,179.614367 59.0251334,178.785482 C59.707907,178.351781 60.4825397,177.997971 61.2626565,177.569976 C62.0633388,177.204753 62.9078941,176.88233 63.7647887,176.60556 C64.1898084,176.465748 64.6340226,176.412962 65.0686395,176.301683 C65.5046274,176.313097 65.9488416,176.196111 66.3738613,176.231778 C67.2444662,176.198965 68.0780532,176.407256 68.8951879,176.695439 C69.7136936,176.962223 70.4801001,177.48295 71.2327963,178.025078 C71.9745243,178.582898 72.6778633,179.25913 73.3153929,179.965323 C74.589081,181.400533 75.6598565,182.959863 76.5523979,184.346567 C77.4326,185.743258 78.1565045,186.957338 78.6473337,187.826168 C79.1505022,188.699279 79.4411609,189.198606 79.4411609,189.198606" id="Fill-30" fill="#D3D2C9"></path>
                    <path d="M7.32416531,199.651568 C7.32416531,199.651568 17.5174696,214.744297 53.3101045,217.97097 C53.3101045,217.97097 25.9968309,222.447804 2.09059233,204.499959 C2.09059233,204.499959 4.31468709,201.404587 7.32416531,199.651568" id="Fill-32" fill="#D3D2C9"></path>
                    <path d="M43.902439,277.003484 C43.902439,277.003484 61.6496567,285.656277 81.533101,278.229994 C81.533101,278.229994 66.0148726,291.203009 47.4206928,284.476413 C47.4206928,284.476413 44.5450547,279.416718 43.902439,277.003484" id="Fill-34" fill="#D3D2C9"></path>
                    <path d="M30.3135889,257.778641 C30.3135889,257.778641 34.2824057,253.412823 33.0959156,242.508711 C33.0959156,242.508711 35.25345,257.887125 38.6759582,259.233449 L30.3135889,257.778641 Z" id="Fill-36" fill="#D3D2C9"></path>
                    <path d="M91.9860627,115.288376 C93.0192224,113.190405 93.9065402,110.991327 94.6602833,108.710801 C102.328563,109.735914 106.348072,114.000665 106.348072,114.000665 C145.40505,106.888066 162.953771,127.762457 162.953771,127.762457 L174.090905,129.402637 C177.037727,134.118157 165.268158,139.676236 165.268158,139.676236 C154.892945,161.171311 139.555022,169.311832 116.513382,157.914822 C93.4840079,146.510791 102.828787,120.193471 102.828787,120.193471 C99.004188,114.395264 93.9556085,114.839011 91.9860627,115.288376" id="Fill-38" fill="#756A63"></path>
                    <path d="M47.422957,99.6846023 C78.2637656,90.5555837 94.5926238,109.649279 94.5926238,109.649279 C104.092651,109.866441 109.068922,115.039826 109.068922,115.039826 C148.356637,108.074173 166.021094,128.50932 166.021094,128.50932 L177.222844,130.122911 C180.191603,134.732777 168.346736,140.174177 168.346736,140.174177 C157.907401,161.209954 142.483569,169.178947 119.305311,158.025381 C96.1311675,146.860819 105.531094,121.099724 105.531094,121.099724 C100.652182,113.90454 95.2302556,116.543461 95.2302556,116.543461 C87.4607468,127.272326 79.5787954,132.231299 76.8362932,133.79541 L76.8362932,133.800908 C76.8362932,133.800908 74.6066389,134.062051 73.3204054,134.217362 C72.9913051,134.27234 71.9217293,134.301203 71.5460065,134.302577 C68.2508901,134.460638 62.4285579,133.624979 57.0985048,127.910065 C57.0985048,127.910065 56.9106434,127.894947 56.9092722,127.894947 C48.3965453,119.613956 49.8267602,107.230268 49.8267602,107.230268 C45.6183906,104.712297 47.422957,99.6846023 47.422957,99.6846023" id="Fill-40" fill="#000000"></path>
                    <path d="M165.156794,130.662021 C165.156794,130.662021 162.79455,151.934917 146.307763,155.975357 C129.816783,160.008951 108.548199,148.568112 108.711739,134.302661 C108.711739,134.302661 150.621305,159.351747 165.156794,130.662021" id="Fill-42" fill="#282828"></path>
                    <path d="M81.533101,125.595926 C81.533101,125.595926 70.9426536,134.447849 62.7418806,128.749867 C54.5370133,123.051885 53.3101045,111.84669 53.3101045,111.84669 C53.3101045,111.84669 62.013105,131.802159 81.533101,125.595926" id="Fill-44" fill="#282828"></path>
                </g>
            </g>
        </g>
    </g>
</svg>