<?xml version="1.0" encoding="UTF-8"?>
<svg width="132px" height="70px" viewBox="0 0 132 70" version="1.1" xmlns="http://www.w3.org/2000/svg" xmlns:xlink="http://www.w3.org/1999/xlink">
    <!-- Generator: Sketch 52.5 (67469) - http://www.bohemiancoding.com/sketch -->
    <title>logo</title>
    <desc>Created with Sketch.</desc>
    <defs>
        <polygon id="path-1" points="0.0562972973 0.231324324 84.6491892 0.231324324 84.6491892 18.709973 0.0562972973 18.709973"></polygon>
        <polygon id="path-3" points="0.238250248 0.124536001 113.475919 0.124536001 113.475919 45.9459459 0.238250248 45.9459459"></polygon>
    </defs>
    <g id="Landing" stroke="none" stroke-width="1" fill="none" fill-rule="evenodd">
        <g id="Landing---Desktop" transform="translate(-165.000000, -23.000000)">
            <g id="header" transform="translate(165.000000, 23.000000)">
                <g id="logo">
                    <path d="M48.6407568,3.73597297 C48.5329189,-0.567540541 43.7575135,4.80894595 41.3394054,7.59705405 C39.8023784,9.36759459 36.3153514,11.0911081 33.9761622,12.1132703 C33.974,12.1073243 32.6867027,8.40597297 27.8561622,7.54786486 C27.8561622,7.54786486 28.8680541,8.82056757 28.6867027,9.59110811 C28.6867027,9.59110811 25.6064324,7.55408108 22.5442703,8.24327027 C20.151027,6.0802973 17.5861622,3.15624324 16.7326486,2.7027027e-05 C16.7326486,2.7027027e-05 11.5515676,9.17786486 18.0077838,14.4635405 C17.0985946,15.3167838 16.0012973,16.7843514 15.3385946,19.205973 C13.8348108,18.7219189 11.8299459,18.5294865 9.34832432,19.2621892 C9.34832432,19.2621892 8.99643243,20.2511081 9.82616216,20.7462432 C9.82616216,20.7462432 9.54859459,23.1813784 11.2267027,24.8097568 L11.2729189,24.8127297 C11.611027,25.1738108 11.9602162,25.4354324 12.301027,25.6235405 C12.0099459,26.0140811 11.6921081,26.785973 11.691027,26.7892162 L11.3772432,26.903 L10.5691351,27.7467838 L10.5691351,27.7478649 L10.7875135,27.7743514 C6.28075676,26.7713784 3.36508108,31.0643514 3.36508108,31.0643514 C3.27075676,31.2562432 3.24535135,31.443 3.15886486,31.6311081 C2.43156757,31.2667838 1.594,31.2224595 1.27940541,32.7778649 C0.927783784,34.5186757 1.19778378,35.7738108 1.66481081,36.5608378 C1.40616216,38.1440811 1.48643243,39.1165135 1.48643243,39.1165135 C1.48643243,39.1165135 1.484,39.120027 1.47291892,39.1273243 C1.00535135,39.4043514 0.64372973,39.8373243 0.522648649,39.9924595 C-0.186540541,40.8732703 -0.597621622,42.2789459 2.18643243,43.5492162 C2.18508108,43.5608378 1.44832432,49.4916486 5.86372973,50.403 L6.42183784,50.5102973 C6.52210811,50.5373243 6.67859459,50.5754324 6.87994595,50.6132703 C6.88589189,50.6724595 6.89643243,50.7340811 6.90967568,50.7970541 C6.82075676,50.7486757 6.774,50.7205676 6.774,50.7205676 C7.15832432,52.4008378 8.33508108,53.7697568 8.70967568,54.1724595 C8.79508108,54.4867838 9.07454054,55.0248919 9.25535135,55.3562432 C9.25886486,55.363 9.26237838,55.3692162 9.26616216,55.3757027 C9.35372973,55.5354324 9.41589189,55.6435405 9.41589189,55.6435405 C9.41886486,55.6443514 9.42156757,55.6451622 9.42427027,55.6457027 C12.1596757,60.215973 20.2250811,58.9535405 20.4153514,56.4924595 C20.4153514,56.4924595 22.4137297,51.2111081 28.4221081,48.923 C34.4312973,46.6340811 43.0112973,44.4646216 39.3026486,29.9227297 C37.1461622,21.4713784 36.7088649,20.2524595 36.6488649,20.1146216 C36.6672432,20.1354324 36.7034595,20.0994865 36.6302162,19.4316486 C36.5934595,19.4046216 36.5604865,19.3735405 36.5242703,19.3457027 C48.8412973,19.0162432 48.7461622,7.84110811 48.6407568,3.73597297 Z" id="Fill-1" fill="#773600"></path>
                    <g id="Group-5" transform="translate(47.027027, 20.231081)">
                        <mask id="mask-2" fill="white">
                            <use xlink:href="#path-1"></use>
                        </mask>
                        <g id="Clip-4"></g>
                        <path d="M0.0562972973,4.81889189 L7.70872973,14.4521351 C8.07035135,15.1067297 8.23683784,15.8697027 8.21710811,16.6275405 C8.32467568,17.3218649 8.26764865,18.0451081 8.05224324,18.709973 L79.7617027,14.6407838 L84.6492703,0.231324324 L0.0562972973,4.81889189 Z" id="Fill-3" fill="#FFFFFF" mask="url(#mask-2)"></path>
                    </g>
                    <g id="Group-8" transform="translate(12.702703, 24.014865)">
                        <mask id="mask-4" fill="white">
                            <use xlink:href="#path-3"></use>
                        </mask>
                        <g id="Clip-7"></g>
                        <path d="M86.5086216,28.1151892 C86.2826757,28.2995135 86.0772703,28.4568108 85.8918649,28.5919459 C85.9705135,28.2827568 86.0678108,27.9511351 86.1851081,27.5995135 C86.5491622,27.5784324 86.924027,27.5219459 87.3102432,27.4295135 C87.0383514,27.6708649 86.7713243,27.9000541 86.5086216,28.1151892 M33.0824054,13.3287027 C32.889973,14.8357297 32.4937568,16.4597838 31.904027,18.1532973 C31.3007838,19.8841081 30.5302432,21.6211351 29.6145676,23.316 C28.6988919,25.0097838 27.6129459,26.6503243 26.3888919,28.1924865 C25.174027,29.7200541 23.8229459,31.0951892 22.3710541,32.2795135 C20.9429459,33.4476216 19.3824054,34.4108649 17.7332162,35.1443784 C17.564027,35.2195135 17.3945676,35.2914054 17.2237568,35.3605946 C17.584027,34.5441081 17.9667297,33.6708649 18.3761892,32.7387027 C19.3586216,30.5035676 20.3867297,28.133027 21.4326757,25.6927568 C22.5059189,23.1905946 23.5961892,20.6300541 24.7026757,18.0135676 C25.8083514,15.3976216 26.8613243,12.888973 27.8491622,10.5143784 C28.1080811,9.91735135 28.284027,9.27167568 28.3715946,8.59383784 C28.474027,7.79464865 28.4072703,7.01897297 28.1726757,6.27978378 C28.1542973,6.22194595 28.1351081,6.16627027 28.1142973,6.11086486 C28.1591622,6.10654054 28.2045676,6.10383784 28.2491622,6.10005405 C28.8332162,6.05356757 29.3653784,6.06059459 29.8345676,6.12032432 C30.2710541,6.17572973 30.6551081,6.27789189 30.9702432,6.4232973 C31.5815946,6.70518919 32.039973,7.08843243 32.3710541,7.59410811 C32.7497027,8.17545946 32.9986216,8.92113514 33.1110541,9.81302703 C33.2437568,10.8754595 33.2345676,12.0638378 33.0824054,13.3287027 M111.544297,19.8627568 C109.675378,20.3351892 109.128892,20.756 108.969973,20.9673514 L108.903757,21.1135676 C108.903757,21.1135676 108.863757,21.0557297 108.931865,20.9635676 L111.920514,14.3341081 L111.920514,14.333027 L112.214568,13.7776216 C112.749973,12.626 112.328892,11.2703243 111.160784,10.4714054 C110.694297,10.1549189 110.168081,9.95762162 109.57727,9.88140541 C109.358892,9.85437838 109.136189,9.84356757 108.901595,9.85005405 C108.213757,9.86816216 107.509432,10.0524865 106.804297,10.3951892 C105.997,10.7881622 105.339432,11.4378919 104.855108,12.3111351 C104.772676,12.4581622 104.691324,12.6035676 104.609162,12.7495135 C104.462946,12.0405946 104.002405,11.3757297 103.280243,10.9105946 C102.820784,10.6176216 102.299973,10.4338378 101.731054,10.3614054 C101.511865,10.333027 101.282135,10.3216757 101.045108,10.3276216 C100.349162,10.3468108 99.6429459,10.5324865 98.9488919,10.8803243 C98.224027,11.2422162 97.6251081,11.8319459 97.1424054,12.6281622 C96.9448378,12.3357297 96.709973,12.063027 96.437,11.8105946 C95.8280811,11.2514054 95.0442973,10.8887027 94.0810541,10.733027 L93.9194324,10.7095135 C92.5278108,10.5335676 91.1126757,10.7619459 89.7124054,11.3903243 C88.4318649,11.9643784 87.1832162,12.7862703 86.0002432,13.833027 C85.3164595,14.4381622 84.654027,15.1195135 84.0126757,15.8546486 C83.9361892,14.9814054 83.6332162,14.1381622 83.1115946,13.3792432 C82.4245676,12.3792432 81.4110541,11.7470811 80.2556486,11.6005946 C79.9905135,11.5668108 79.7156486,11.5578919 79.4367297,11.5751892 C79.2434865,11.5873514 79.0488919,11.6119459 78.849973,11.6484324 L79.0848378,11.1143784 C78.8286216,11.0946486 78.6297027,10.9138378 78.5178108,10.5041081 C77.7618649,7.746 74.5229459,7.29194595 74.5229459,7.29194595 C74.5229459,7.29194595 72.6634865,7.83789189 72.2597027,7.92383784 C72.0948378,8.25059459 71.9253784,8.59248649 71.7507838,8.94843243 C71.0337568,10.4057297 70.2715946,11.9832973 69.4851081,13.6343784 C69.2691622,14.0878919 69.049973,14.5516757 68.8288919,15.0216757 C68.7029459,14.5068108 68.4832162,14.0522162 68.1659189,13.6538378 C67.6351081,12.9895135 66.8721351,12.5627568 66.0172703,12.4538378 C65.7905135,12.4251892 65.554027,12.4181622 65.3153784,12.4327568 C64.6415946,12.4735676 63.9529459,12.7397838 63.2067297,13.2481622 C62.8578108,13.4878919 62.4710541,13.8068108 62.0364595,14.2157297 C61.8256486,13.9008649 61.5459189,13.6143784 61.2021351,13.3732973 C60.7175405,13.0384324 60.1626757,12.8284324 59.5548378,12.7514054 C59.3413243,12.7241081 59.1205135,12.7138378 58.8905135,12.7192432 C58.1953784,12.7384324 57.4921351,12.9238378 56.7956486,13.2722162 C55.997,13.6716757 55.3453784,14.3432973 54.8653784,15.2527568 C54.5688919,15.803027 54.2691622,16.3746486 53.9683514,16.9538378 C53.8805135,16.5662703 53.7718649,16.1908649 53.6188919,15.8392432 C53.0007838,14.4362703 51.7578108,13.5176216 50.2075405,13.3203243 C49.8691622,13.2776216 49.5080811,13.2670811 49.1361892,13.2897838 C47.7059189,13.3762703 46.2905135,13.8273514 44.9288919,14.6308649 C43.7559189,15.3232973 42.6234865,16.2197838 41.5575405,17.286 C41.8883514,15.9151892 42.1045676,14.5787027 42.2002432,13.2857297 C42.3078108,11.5041081 42.1945676,9.81572973 41.8642973,8.26789189 C41.4851081,6.49140541 40.6805135,4.94410811 39.4742973,3.66681081 C38.287,2.41113514 36.6688919,1.46167568 34.6653784,0.84627027 C33.8818649,0.605459459 33.0080811,0.422486486 32.0691622,0.303297297 C30.7767297,0.138972973 29.3045676,0.0873513514 27.6788919,0.150864865 C25.5924054,0.248162162 23.3713243,0.645459459 21.074027,1.33086486 C18.8242973,2.00383784 16.6034865,2.89086486 14.4702432,3.96627027 C12.3351081,5.04302703 10.3178108,6.29464865 8.47672973,7.68572973 C6.59024324,9.11194595 5.01402703,10.6381622 3.79997297,12.2132973 C3.06267568,13.1578919 2.51402703,14.2265405 2.16916216,15.3884324 C1.80051351,16.6273514 1.71672973,17.8457297 1.91889189,19.008973 C2.14943243,20.3451892 2.82078378,21.5522162 3.85943243,22.496 C4.81537838,23.3665405 6.10835135,23.9103243 7.7042973,24.1135676 C7.84456757,24.1316757 7.98727027,24.1468108 8.13510811,24.1597838 L10.6153784,24.3773514 L10.2161892,21.8784324 C10.1742973,21.623027 10.1680811,21.0273514 10.5807838,19.9241081 C10.9661892,18.8932973 11.5624054,17.7822162 12.3532162,16.623027 C13.1678108,15.4278919 14.1842973,14.2046486 15.3745676,12.9873514 C16.4845676,11.8522162 17.7021351,10.8051892 18.9975405,9.8732973 C18.4329459,11.0078919 17.8586216,12.1795135 17.2818649,13.3714054 C16.5007838,14.9897838 15.7194324,16.6008649 14.9378108,18.2043784 L12.7080811,22.7838378 C12.0002432,24.236 11.3467297,25.586 10.7467297,26.8368108 C10.1567297,28.0654595 9.63105405,29.1276216 9.17835135,30.0087027 C9.09321622,30.1778919 9.01240541,30.3446486 8.93672973,30.5076216 C8.977,30.3668108 9.02213514,30.226 9.06997297,30.0835676 L9.88375676,27.6949189 L7.33078378,27.1692432 C7.20132432,27.1432973 7.0697027,27.1211351 6.93591892,27.1046486 C6.37943243,27.0332973 5.79889189,27.0508649 5.21186486,27.1549189 C4.4897027,27.2819459 3.80672973,27.5457297 3.17997297,27.9381622 C2.56564865,28.3257297 2.01132432,28.8532973 1.53240541,29.5065405 C1.03537838,30.1849189 0.684027027,30.9762703 0.494027027,31.8268108 C0.0880810811,33.5116757 0.165648649,35.116 0.724567568,36.5951892 C1.28348649,38.0738378 2.24483784,39.3346486 3.58105405,40.3403243 C4.8042973,41.2614054 6.31618919,41.9454595 8.07564865,42.3727568 C8.61672973,42.5041081 9.18186486,42.6081622 9.75754054,42.6816757 C10.9637568,42.8346486 12.264027,42.8603243 13.6151081,42.7576216 C16.3367297,42.5624865 18.9564595,41.9527568 21.3997027,40.9481622 C23.7945676,39.9616757 26.0515946,38.6965405 28.1102432,37.1878919 C30.1626757,35.6851892 32.0513243,33.9405946 33.7242973,32.006 C33.8634865,31.8451892 33.9924054,31.6778919 34.1286216,31.5157297 C34.0261892,32.2414054 33.9837568,32.9278919 34.0124054,33.5797838 C34.074027,35.0178919 34.4761892,36.2308649 35.2045676,37.1835676 C35.6980811,37.8292432 36.6067297,38.6408649 38.1356486,38.8354595 C38.4745676,38.8784324 38.8356486,38.8895135 39.2091622,38.8668108 C40.7672703,38.7722162 42.3356486,38.1441081 43.8726757,37.0005946 C44.7715946,36.3319459 45.6467297,35.5422162 46.4880811,34.6465405 C46.4867297,35.0754595 46.5507838,35.4797838 46.6872703,35.866 C47.1113243,37.0624865 48.0964595,37.9557297 49.3237568,38.1108649 C49.4710541,38.1295135 49.6229459,38.2222162 49.7764595,38.2222162 L49.8351081,38.2222162 L49.8924054,38.1346486 C50.4313243,38.1035676 50.9380811,37.9638378 51.4048378,37.806 C51.9886216,37.6065405 52.5315946,37.2265405 53.0637568,36.6881622 C53.5097027,36.2354595 53.9397027,35.6187027 54.3783514,34.8243784 C54.3972703,34.7887027 54.4178108,34.7473514 54.437,34.7097838 C54.4678108,34.8200541 54.5032162,34.9241081 54.5437568,35.0303243 C54.899973,35.9576216 55.527,36.6811351 56.3561892,37.1222162 C56.749973,37.3324865 57.1737568,37.4673514 57.6172703,37.5238378 C58.0551081,37.5792432 58.5115946,37.5568108 58.9745676,37.4568108 C59.7294324,37.2968108 60.4515946,36.933027 61.1205135,36.3776216 L61.1559189,36.3478919 C61.3321351,36.1938378 61.5032162,36.0408649 61.6724054,35.8873514 C62.1867297,36.5800541 62.9415946,37.1532973 63.8261892,37.266 C63.9724054,37.2851892 64.124027,37.4114054 64.2761892,37.4114054 L64.3348378,37.4114054 L64.3932162,37.2895135 C64.9324054,37.2576216 65.4405135,37.1014054 65.9083514,36.943027 C66.4918649,36.7435676 67.034027,36.3546486 67.5656486,35.8168108 C67.897,35.4800541 68.2237568,35.0435676 68.5559189,34.5222162 C69.4234865,36.1116757 70.7467297,36.6122162 71.5256486,36.7746486 C71.6351081,36.7973514 71.7451081,36.8122162 71.8545676,36.8257297 C73.1732162,36.9935676 74.4556486,36.5332973 75.6567297,35.4705946 C76.4448378,34.7857297 77.1742973,34.0951892 77.8264595,33.4192432 C77.9418649,33.3005946 78.057,33.1703243 78.1729459,33.0478919 C78.3515946,33.486 78.5764595,33.8816757 78.854027,34.233027 C79.6429459,35.2324865 80.664027,35.886 81.8075405,36.1232973 C81.9618649,36.1551892 82.1159189,36.1808649 82.2713243,36.2008649 C83.0672703,36.3019459 83.8802432,36.2422162 84.6902432,36.0235676 C85.5691622,35.7865405 86.2818649,35.4773514 86.8464595,35.093027 C87.7175405,34.5168108 88.5597027,33.8870811 89.3534865,33.2238378 C89.7297027,34.0219459 90.3264595,34.6443784 91.0924054,35.0343784 C91.4053784,35.1946486 91.7378108,35.3084324 92.0807838,35.3746486 C90.9121351,36.286 90.0851081,37.2241081 89.5605135,38.2335676 C88.9375405,39.4295135 88.6778108,40.5854595 88.7883514,41.6722162 C88.9132162,42.9070811 89.4456486,43.986 90.3283514,44.7908649 C91.0042973,45.4078919 91.8348378,45.7954595 92.7310541,45.9103243 C93.0505135,45.9503243 93.3829459,45.9565405 93.7213243,45.9295135 C94.7905135,45.8427568 95.8434865,45.4035676 96.9351081,44.5903243 C97.9564595,43.8303243 98.874027,42.6943784 99.7413243,41.116 L99.7759189,41.0551892 L102.739973,34.5727568 C103.864297,33.5662703 105.123486,32.3211351 106.485919,30.8657297 C107.964297,29.2876216 109.648892,27.2651892 111.48673,24.863027 L112.174297,23.9722162 C112.685108,23.3384324 113.024838,22.733027 113.212946,22.1235676 C113.357811,21.6562703 113.441865,21.2297838 113.475919,20.8246486 C113.469703,20.176 113.140784,19.4581622 111.544297,19.8627568" id="Fill-6" fill="#FF7900" mask="url(#mask-4)"></path>
                    </g>
                    <path d="M97.2476486,50.903027 C97.229,50.9173514 97.2081892,50.9332973 97.1895405,50.9465405 C97.1971081,50.9216757 97.2187297,50.9095135 97.2476486,50.903027 M98.6079189,49.7838378 C98.5895405,49.8005946 98.571973,49.8138378 98.5530541,49.8311351 C98.5630541,49.8076216 98.5798108,49.7908649 98.6079189,49.7838378 M44.3811622,35.683027 C44.1887297,37.1903243 43.7914324,38.813027 43.2025135,40.5078919 C42.599,42.238973 41.8284595,43.9757297 40.9127838,45.6711351 C39.9968378,47.3641081 38.9106216,49.0049189 37.6865676,50.5468108 C36.4725135,52.0743784 35.1208919,53.4495135 33.6692703,54.6349189 C32.2406216,55.8024865 30.6803514,56.766 29.0317027,57.4992432 C28.8625135,57.5746486 28.691973,57.646 28.5217027,57.7138378 C28.8808919,56.8995135 29.2652162,56.0254595 29.6746757,55.0938378 C30.6565676,52.8578919 31.6849459,50.4873514 32.7308919,48.0481622 C33.8044054,45.5457297 34.8944054,42.9846486 36.0008919,40.3695135 C37.1065676,37.7514054 38.1592703,35.2438378 39.1468378,32.8684324 C39.4065676,32.2719459 39.5822432,31.6273514 39.6695405,30.9484324 C39.7717027,30.1495135 39.7054865,29.373027 39.4708919,28.6341081 C39.4522432,28.5776216 39.4330541,28.5208649 39.4117027,28.4651892 C39.4573784,28.4616757 39.5025135,28.4576216 39.5473784,28.4543784 C40.1311622,28.408973 40.6633243,28.4151892 41.1317027,28.4749189 C41.5695405,28.5303243 41.9533243,28.6327568 42.2681892,28.7784324 C42.8803514,29.0600541 43.3381892,29.443027 43.6692703,29.9484324 C44.0473784,30.5295135 44.2971081,31.2757297 44.4092703,32.1673514 C44.541973,33.2305946 44.5325135,34.4178919 44.3811622,35.683027 M121.246838,44.8646486 L119.039811,46.1851892 L122.977649,37.393027 L122.973595,37.3987027 L123.550351,36.1370811 C124.085757,34.9849189 123.645757,33.6262703 122.477108,32.8278919 C122.010892,32.5116757 121.475216,32.313027 120.884135,32.2376216 C120.667919,32.2105946 120.439,32.1997838 120.204135,32.2049189 C119.516027,32.2241081 118.809541,32.4065405 118.104676,32.7505946 C117.297108,33.1432973 116.639,33.7927568 116.153865,34.6665405 C116.071973,34.8122162 115.989811,34.9581622 115.907649,35.1046486 C115.761432,34.3946486 115.301162,33.7292432 114.579,33.2649189 C114.11873,32.9727568 113.597649,32.7876216 113.030351,32.7143784 C112.810622,32.6868108 112.580081,32.6765405 112.343324,32.6824865 C111.646027,32.7011351 110.940351,32.8876216 110.247919,33.2351892 C109.523054,33.5970811 108.922784,34.1868108 108.440622,34.9827568 C108.242514,34.6903243 108.008189,34.4176216 107.734676,34.1654595 C107.126027,33.6049189 106.343054,33.2438378 105.377919,33.0870811 L105.216838,33.0643784 C103.826838,32.8876216 102.410892,33.116 101.009541,33.7449189 C99.7300811,34.3181622 98.4808919,35.1405946 97.2981892,36.1881622 C96.6227838,36.7857297 95.969,37.4570811 95.3349459,38.1814054 C95.2508919,37.318973 94.9408919,36.4857297 94.4244054,35.7341081 C93.7371081,34.7338378 92.7152162,34.1027568 91.5603514,33.956 C91.296027,33.9222162 91.0173784,33.9127568 90.7381892,33.9300541 C90.5446757,33.9414054 90.3487297,33.966 90.1508919,34.0032973 C86.1852162,27.2878919 81.3546757,34.7951892 81.3546757,34.7951892 C81.166027,35.1884324 80.9752162,35.5862703 80.7838649,35.9884324 C80.5673784,36.4424865 80.3479189,36.9068108 80.1271081,37.3762703 C80.0003514,36.8616757 79.7814324,36.4076216 79.4635946,36.0092432 C78.9322432,35.3438378 78.1700811,34.9170811 77.3157568,34.8084324 C77.0892703,34.7805946 76.8517027,34.7722162 76.6130541,34.7870811 C75.9395405,34.8270811 75.2503514,35.0932973 74.5054865,35.6022162 C74.1552162,35.8416757 73.7684595,36.1608649 73.3344054,36.5700541 C73.1233243,36.2551892 72.8427838,35.9670811 72.5003514,35.7287027 C72.0157568,35.393027 71.4608919,35.1835676 70.8525135,35.106 C70.6403514,35.0795135 70.4181892,35.0678919 70.1881892,35.0741081 C69.4935946,35.0932973 68.7892703,35.278973 68.0935946,35.6270811 C67.2949459,36.0254595 66.6435946,36.6970811 66.1630541,37.6076216 C65.8668378,38.1570811 65.5671081,38.7276216 65.2662973,39.3081622 C65.1792703,38.9205946 65.0700811,38.5454595 64.9162973,38.1946486 C64.2984595,36.7905946 63.0552162,35.8722162 61.5052162,35.6754595 C61.1668378,35.6324865 60.8062973,35.6208649 60.4338649,35.6441081 C59.0044054,35.7308649 57.5881892,36.183027 56.2268378,36.9865405 C55.0481892,37.6803243 53.9122432,38.5811351 52.841973,39.6535676 C53.1741351,38.2787027 53.4017027,36.9362703 53.4981892,35.6395135 C53.606027,33.8584324 53.4927838,32.1711351 53.1622432,30.6219459 C52.7830541,28.8462703 51.9787297,27.2987027 50.7722432,26.0214054 C49.5844054,24.7651892 47.9665676,23.8170811 45.9627838,23.2014054 C45.1803514,22.9608649 44.3065676,22.7781622 43.3668378,22.6584324 C42.0741351,22.4943784 40.6025135,22.443027 38.9762973,22.5054595 C36.8911622,22.6024865 34.6692703,22.998973 32.3722432,23.686 C30.1222432,24.3584324 27.9006216,25.2446486 25.7679189,26.3205946 C23.6335946,27.3970811 21.6165676,28.6487027 19.7744054,30.0403243 C17.8881892,31.466 16.311973,32.9922162 15.0976486,34.5668108 C14.3603514,35.5119459 13.8114324,36.5811351 13.4671081,37.7424865 C13.0984595,38.9824865 13.0144054,40.1997838 13.2162973,41.3638378 C13.4471081,42.6995135 14.1192703,43.906 15.1576486,44.8503243 C16.1133243,45.7211351 17.4065676,46.266 19.0025135,46.4687027 C19.1425135,46.486 19.2854865,46.5014054 19.4327838,46.5146486 L21.9133243,46.7311351 L21.5138649,44.2322162 C21.4722432,43.9768108 21.4657568,43.3816757 21.879,42.2787027 C22.2644054,41.2476216 22.8608919,40.1365405 23.6517027,38.9770811 C24.4662973,37.7819459 25.4825135,36.5595135 26.671973,35.3411351 C27.7825135,34.2062703 28.9998108,33.1595135 30.2957568,32.2276216 C29.7311622,33.3619459 29.1571081,34.5343784 28.5800811,35.7265405 C27.7992703,37.3451892 27.0171081,38.9549189 26.236027,40.5587027 L24.0057568,45.1387027 C23.2984595,46.5911351 22.6449459,47.9414054 22.0444054,49.1908649 C21.4541351,50.4203243 20.9287297,51.4824865 20.4757568,52.3641081 C20.3906216,52.533027 20.3106216,52.698973 20.2352162,52.8627568 C20.2752162,52.7219459 20.3195405,52.5803243 20.3679189,52.4384324 L21.1811622,50.0492432 L18.6287297,49.5238378 C18.4998108,49.4981622 18.3679189,49.4751892 18.2335946,49.4587027 C17.6779189,49.3878919 17.0971081,49.4049189 16.5098108,49.5100541 C15.7876486,49.6370811 15.1049459,49.8997838 14.4779189,50.2935676 C13.8635946,50.6805946 13.3092703,51.2078919 12.8300811,51.8603243 C12.3335946,52.5397838 11.9822432,53.3311351 11.7917027,54.1808649 C11.3857568,55.8662703 11.4641351,57.4705946 12.0227838,58.9492432 C12.5817027,60.4284324 13.5422432,61.688973 14.879,62.6954595 C16.1025135,63.6162703 17.6141351,64.2995135 19.3741351,64.7284324 C19.9149459,64.8592432 20.4803514,64.9624865 21.0544054,65.0357297 C22.2611622,65.1887027 23.561973,65.2138378 24.9130541,65.1124865 C27.6352162,64.9165405 30.2541351,64.3076216 32.6979189,63.3024865 C35.091973,62.3157297 37.3500811,61.0508649 39.4084595,59.543027 C41.4598108,58.0392432 43.3487297,56.2957297 45.0222432,54.3614054 C45.1617027,54.1997838 45.2900811,54.0338378 45.4268378,53.8708649 C45.3244054,54.5954595 45.2822432,55.2822162 45.3103514,55.9338378 C45.3725135,57.3724865 45.7738649,58.5857297 46.5022432,59.5378919 C46.9954865,60.1849189 47.9052162,60.9968108 49.4341351,61.1908649 C49.7730541,61.2341081 50.1344054,61.2446486 50.5068378,61.2211351 C52.0649459,61.1262703 53.6341351,60.4987027 55.1700811,59.3551892 C56.0695405,58.6862703 56.9435946,57.8965405 57.7857568,57.0011351 C57.7841351,57.4297838 57.8492703,57.8335676 57.9854865,58.2200541 C58.4095405,59.4176216 59.3944054,60.1938378 60.6217027,60.3505946 C60.769,60.368973 60.9217027,60.3454595 61.0744054,60.3454595 L61.1330541,60.3454595 L61.1903514,60.3732973 C61.7298108,60.3405946 62.2371081,60.2614054 62.7030541,60.1027568 C63.2865676,59.9027568 63.8298108,59.5527568 64.3614324,59.0138378 C64.8081892,58.5616757 65.2379189,57.9592432 65.6757568,57.1649189 C65.6957568,57.1287027 65.7152162,57.0941081 65.7349459,57.0573514 C65.7665676,57.1665405 65.8011622,57.276 65.8425135,57.3811351 C66.1973784,58.3087027 66.8246757,59.0341081 67.6549459,59.4754595 C68.0484595,59.686 68.4717027,59.8205946 68.9146757,59.8773514 C69.3525135,59.9327568 69.8103514,59.9103243 70.2727838,59.8111351 C71.0273784,59.6500541 71.7487297,59.2870811 72.4187297,58.7327568 L72.4535946,58.7019459 C72.6300811,58.5481622 72.8017027,58.3951892 72.9708919,58.2419459 C73.4841351,58.9338378 74.2392703,59.3892432 75.1244054,59.5022162 C75.2698108,59.5211351 75.421973,59.5295135 75.5733243,59.5300541 L75.6330541,59.528973 L75.6908919,59.5254595 C76.2300811,59.4927568 76.7387297,59.3968108 77.2062973,59.2381622 C77.7903514,59.0392432 78.331973,58.6792432 78.8633243,58.1408649 C79.1949459,57.8046486 79.5217027,57.3838378 79.8541351,56.8616757 C80.7214324,58.4511351 82.0438649,58.9600541 82.8241351,59.1214054 C82.9333243,59.1441081 83.0430541,59.163027 83.1535946,59.1770811 C84.4714324,59.3443784 85.7538649,58.8854595 86.9544054,57.823027 C87.7417027,57.1384324 88.4714324,56.4484324 89.1254865,55.7732973 C89.2398108,55.6541081 89.3562973,55.5246486 89.4708919,55.4022162 C89.6500811,55.8403243 89.8741351,56.2362703 90.1514324,56.5878919 C90.9398108,57.5870811 91.9625135,58.2405946 93.1052162,58.4781622 C93.2595405,58.5100541 93.4135946,58.5362703 93.5706216,58.5557297 C94.3644054,58.6565405 95.1779189,58.5968108 95.9887297,58.3784324 C96.8684595,58.1419459 97.5795405,57.8314054 98.1435946,57.4468108 C99.0192703,56.8681622 99.866027,56.2354595 100.663595,55.568973 C101.039,56.3678919 101.623865,57.0000541 102.390892,57.388973 C102.704405,57.5492432 103.035757,57.6632973 103.37927,57.7303243 C102.210892,58.6400541 101.383595,59.5787027 100.858189,60.5884324 C100.235486,61.783027 99.9749459,62.9400541 100.085216,64.0265405 C100.210892,65.2608649 100.744946,66.3408649 101.627378,67.1449189 C102.301703,67.7632973 103.133054,68.1495135 104.02927,68.2638378 C104.347919,68.3041081 104.680892,68.3108649 105.01873,68.2841081 C106.08927,68.1957297 107.140892,67.7581622 108.233865,66.9438378 C109.254676,66.1843784 110.171973,65.0492432 111.038459,63.4705946 L111.073054,63.408973 L114.036838,56.9268108 C115.162784,55.9205946 116.421432,54.6751892 117.783324,53.2197838 C119.262784,51.6419459 121.037649,50.1332973 122.875486,47.7314054 L123.683054,46.7222162 C124.189,46.0951892 124.506838,45.6184324 124.696297,45.0184324 C124.700892,45.0016757 124.705486,44.9851892 124.710081,44.9678919 C124.722243,44.923027 124.733324,44.8741081 124.743054,44.823027 C124.750892,44.7832973 124.756838,44.743027 124.762514,44.7014054 C124.763595,44.6954595 124.763865,44.6897838 124.764946,44.6832973 C124.840622,43.9908649 124.455216,43.1595135 121.246838,44.8646486" id="Fill-9" fill="#FFFFFF"></path>
                    <path d="M42.1451081,38.3848108 C42.1451081,38.3848108 44.8626757,44.2150811 50.4680811,43.4583243 C56.074027,42.7023784 34.4753784,60.5534595 34.4753784,60.5534595 L28.4059189,58.0018378 L29.2775405,41.2175135 L42.1451081,38.3848108 Z" id="Fill-11" fill="#756A63"></path>
                    <path d="M46.1793514,23.2702703 L53.8312432,32.9027027 C54.1928649,33.5578378 54.3598919,34.3208108 54.3390811,35.0786486 C54.4474595,35.7732432 54.3904324,36.4951351 54.1747568,37.1610811 L125.884486,33.0916216 L130.772054,18.6824324 L46.1793514,23.2702703 Z" id="Fill-13" fill="#FF7900"></path>
                    <path d="M66.7707027,26.7945946 C66.7525946,26.8427027 66.6974595,26.87 66.6055676,26.8754054 C66.2596216,26.8951351 65.7463784,26.8978378 65.0644865,26.8821622 C64.3834054,26.8667568 63.8674595,26.87 63.5169189,26.89 C63.0742162,26.9162162 62.8107027,26.9459459 62.7258378,26.9810811 C62.5269189,27.0648649 62.3625946,27.2791892 62.2334054,27.6227027 C62.0769189,28.0362162 62.0988108,28.2632432 62.2998919,28.307027 C62.3834054,28.3243243 62.5196216,28.3267568 62.7088108,28.3154054 C63.0269189,28.2972973 63.5090811,28.2527027 64.1547568,28.182973 C64.7998919,28.1135135 65.2823243,28.0683784 65.6007027,28.0502703 C65.7520541,28.0408108 65.6844865,28.4189189 65.3958378,29.1848649 C65.1444865,29.8502703 64.9725946,30.2386486 64.8807027,30.3505405 C64.8190811,30.4302703 64.7420541,30.4740541 64.6504324,30.4791892 C64.7101622,30.4756757 64.570973,30.4686486 64.2317838,30.4589189 C63.7555676,30.4443243 63.0169189,30.4664865 62.0166486,30.5245946 C61.6944865,30.5437838 61.5112432,30.5572973 61.4688108,30.562973 C61.2204324,30.6127027 61.0669189,30.7127027 61.0098919,30.8648649 C60.7763784,31.4824324 60.5352973,32.1916216 60.2871892,32.9937838 C60.0596216,33.717027 59.9604324,34.0391892 59.9901622,33.9616216 C59.9466486,34.0743243 59.7774595,34.1478378 59.4798919,34.1824324 C59.5604324,34.1737838 59.3561081,34.1835135 58.8685405,34.2118919 C58.0063784,34.2627027 57.4615135,34.267027 57.2339459,34.2248649 C57.1112432,34.2032432 57.0701622,34.1397297 57.1093514,34.0343243 C57.2917838,33.5521622 57.5825946,32.8256757 57.9828649,31.8562162 C58.3820541,30.8862162 58.6734054,30.1594595 58.8555676,29.6767568 C59.0725946,29.1032432 59.3171892,28.3827027 59.5901622,27.5151351 C60.0142162,26.1767568 60.2431351,25.4581081 60.2769189,25.3583784 L60.2988108,25.2794595 C60.3352973,25.1718919 60.425027,25.112973 60.5677297,25.1043243 C60.9093514,25.0843243 61.4215135,25.0613514 62.1055676,25.0332432 C62.7898919,25.0062162 63.3055676,24.9816216 63.6504324,24.9618919 C64.0188108,24.9408108 64.5823243,24.8813514 65.3423243,24.7859459 C66.1012432,24.6902703 66.6647568,24.6324324 67.0339459,24.6110811 C67.2644865,24.5967568 67.3607027,24.6786486 67.3196216,24.8548649 C67.2493514,25.0421622 67.1525946,25.3218919 67.0298919,25.6951351 C67.0028649,25.7902703 66.9631351,25.972973 66.910973,26.2445946 C66.8663784,26.4810811 66.8190811,26.6645946 66.7707027,26.7945946" id="Fill-15" fill="#FFFFFF"></path>
                    <path d="M72.5041892,27.5428649 C72.7047297,27.0120541 72.6587838,26.6563784 72.3668919,26.4725946 C72.1401351,26.3328649 71.7233784,26.2804324 71.1147297,26.3166486 C70.6774324,26.3423243 70.4204054,26.4190811 70.345,26.5461081 C70.2622973,26.6963784 70.0874324,27.1234054 69.8201351,27.828 C69.7836486,27.9285405 69.7301351,28.0755676 69.6606757,28.270973 C69.5914865,28.4666486 69.5387838,28.6117838 69.5031081,28.7082703 C69.4944595,28.7304324 69.5604054,28.7469189 69.6998649,28.7604324 C69.9658108,28.7823243 70.2536486,28.7855676 70.5617568,28.7669189 C71.5717568,28.7082703 72.2182432,28.2990811 72.5041892,27.5428649 M73.1985135,33.2242162 C73.1866216,33.255027 73.1325676,33.2798919 73.0355405,33.2982703 C72.8512162,33.3342162 72.4055405,33.3731351 71.7006757,33.415027 C71.0968919,33.4501622 70.6914865,33.4607027 70.485,33.4474595 C70.3887838,33.4404324 70.3347297,33.4331351 70.3247297,33.4252973 C70.3022973,33.4139459 70.2866216,33.3720541 70.2766216,33.300973 C70.2717568,33.135027 70.2658108,32.8882703 70.2582432,32.5617838 C70.2428378,32.1371892 70.2031081,31.5123243 70.1417568,30.6858378 C70.1222973,30.5215135 69.9666216,30.4393514 69.6741892,30.4393514 C69.8087838,30.4398919 69.5704054,30.4582703 68.9568919,30.4936757 C68.8877027,30.4982703 68.8109459,30.6115135 68.7274324,30.8328649 C68.6155405,31.1290811 68.477973,31.5685405 68.3141892,32.1523243 C68.1493243,32.7358378 68.0117568,33.1761081 67.9006757,33.4717838 C67.8725676,33.5455676 67.8358108,33.5907027 67.7887838,33.605027 C67.7231081,33.6136757 67.6563514,33.6215135 67.5901351,33.6298919 C67.312027,33.6634054 66.8852703,33.6971892 66.3090541,33.7312432 C65.6495946,33.7701622 65.2585135,33.7793514 65.1347297,33.7617838 C65.0109459,33.7431351 64.9695946,33.6793514 65.0104054,33.5715135 C65.1912162,33.0917838 65.4874324,32.3690811 65.9001351,31.4007027 C66.3139189,30.4323243 66.6106757,29.7069189 66.7933784,29.2242162 C67.4874324,27.3844865 67.9855405,25.9512432 68.2868919,24.9255676 L68.3144595,24.8344865 C68.3374324,24.7612432 68.4290541,24.7069189 68.5898649,24.6723243 C68.7485135,24.6377297 69.4628378,24.5701622 70.7304054,24.4701622 C71.5893243,24.4028649 72.2725676,24.3531351 72.7793243,24.3239459 C73.8306757,24.2625946 74.6031081,24.4369189 75.0971622,24.845027 C75.6577027,25.3058378 75.7582432,26.0120541 75.3993243,26.9644865 C75.1593243,27.6004324 74.8714865,28.1120541 74.535,28.5012432 C74.1990541,28.8915135 73.7025676,29.2801622 73.0477027,29.6671892 C72.9152703,29.7439459 72.837973,29.8117838 72.815,29.8723243 C72.8166216,29.8677297 72.8909459,30.3977297 73.0401351,31.460973 C73.1882432,32.5234054 73.2417568,33.1112432 73.1985135,33.2242162" id="Fill-17" fill="#FFFFFF"></path>
                    <path d="M78.5812973,28.2581081 C78.3877838,28.7708108 78.1102162,29.5424324 77.7485946,30.5724324 C77.3875135,31.6010811 77.1104865,32.3727027 76.916973,32.8851351 C76.8837297,32.9718919 76.8423784,33.0278378 76.7923784,33.0521622 C76.7815676,33.0575676 76.7180541,33.0691892 76.6026486,33.0889189 C76.2902162,33.1410811 75.8821081,33.1821622 75.3799459,33.2121622 C74.706973,33.2518919 74.2850811,33.2586486 74.1145405,33.2345946 C73.9904865,33.2164865 73.9491351,33.152973 73.9904865,33.0443243 C73.9645405,33.1140541 74.1288649,32.7302703 74.4853514,31.8924324 C75.2331892,30.1262162 75.7121081,28.9667568 75.9199459,28.4137838 C76.0961622,27.9486486 76.3431892,27.2521622 76.6615676,26.3227027 C76.9807568,25.3937838 77.2280541,24.697027 77.404,24.2318919 C77.4399459,24.1359459 77.5107568,24.0845946 77.616973,24.0789189 C77.7602162,24.0705405 77.9737297,24.0640541 78.2564324,24.0602703 C78.5391351,24.0564865 78.7523784,24.0502703 78.8948108,24.0416216 C79.0375135,24.0335135 79.251027,24.0148649 79.5342703,23.9851351 C79.8183243,23.9562162 80.0318378,23.937027 80.1750811,23.9283784 C80.3083243,23.9202703 80.3575135,23.9654054 80.321027,24.0610811 C80.1456216,24.5259459 79.8558919,25.2254054 79.4518378,26.1583784 C79.0472432,27.0935135 78.7564324,27.7924324 78.5812973,28.2581081" id="Fill-19" fill="#FFFFFF"></path>
                    <path d="M86.0155946,30.5527838 C85.9450541,30.7398108 85.7764054,31.0857568 85.5096486,31.5900811 C85.221,32.139 85.023973,32.4671081 84.9215405,32.5754865 C84.8342432,32.6606216 84.7428919,32.7065676 84.6461351,32.7125135 C84.6047838,32.7149459 84.538027,32.7127838 84.4455946,32.7057568 C84.1264054,32.6814324 83.1523514,32.7173784 81.5261351,32.8125135 C81.171,32.8333243 80.6445135,32.861973 79.9461351,32.8998108 C79.2469459,32.936027 78.7228919,32.9641351 78.3723514,32.9846757 C78.2201892,32.9935946 78.1672162,32.9352162 78.2155946,32.8095405 C78.3991081,32.3217027 78.7042432,31.5887297 79.1307297,30.609 C79.5564054,29.6284595 79.8615405,28.8952162 80.0447838,28.4081892 C80.2326216,27.9122432 80.5542432,26.9895405 81.0091081,25.6406216 C81.1266757,25.2938649 81.2974865,24.7744054 81.5212703,24.0854865 L81.5491081,23.9949459 C81.5777568,23.8954865 81.6537027,23.8414324 81.7785676,23.8344054 C82.1193784,23.8141351 82.6293784,23.7930541 83.3066757,23.7706216 C83.9845135,23.7473784 84.493973,23.7268378 84.8350541,23.7068378 C85.1720811,23.6873784 85.6818108,23.6481892 86.3658649,23.5908919 C87.0493784,23.5330541 87.5593784,23.4957568 87.8961351,23.4752162 C88.1358649,23.4617027 88.2412703,23.5379189 88.213973,23.7057568 C88.1996486,23.8038649 88.1212703,24.1057568 87.9785676,24.6095405 C87.8353243,25.1130541 87.7431622,25.4206216 87.7026216,25.5284595 C87.6682973,25.6198108 87.6045135,25.6681892 87.5115405,25.6738649 C87.4847838,25.6752162 87.4377568,25.6757568 87.3699189,25.6757568 C86.1801892,25.651973 85.0966757,25.6681892 84.1201892,25.726027 C83.8753243,25.7403514 83.7053243,25.8035946 83.6091081,25.9152162 C83.5661351,25.9692703 83.4923514,26.1371081 83.3855946,26.4203514 C83.2734324,26.7157568 83.2453243,26.9084595 83.3012703,26.999 C83.3491081,27.0773784 83.4834324,27.109 83.703973,27.0954865 C83.7501892,27.0935946 83.841,27.0849459 83.9769459,27.0708919 C84.1137027,27.056027 84.2253243,27.0462973 84.3126216,27.0422432 C84.8928919,27.0076486 85.4866757,26.9579189 86.0926216,26.891973 C86.1450541,26.8852162 86.2755946,26.8671081 86.4850541,26.8376486 C86.6485676,26.8106216 86.7761351,26.7952162 86.8685676,26.7900811 C86.9788378,26.7833243 87.0164054,26.8298108 86.9777568,26.9303514 C87.0128919,26.8376486 86.8442432,27.1744054 86.4764054,27.9354865 C86.3085676,28.2854865 86.1585676,28.6338649 86.0272162,28.9825135 C85.9945135,29.0698108 85.911,29.1168378 85.778027,29.1246757 L85.1796486,29.0957568 C84.9272162,29.086027 84.3328919,29.1073784 83.3972162,29.1625135 L82.6645135,29.2057568 C82.4753243,29.216027 82.3488378,29.2657568 82.2837027,29.3549459 C82.2712703,29.3773784 82.2177568,29.511973 82.1247838,29.7603514 C81.9996486,30.0906216 81.9420811,30.3022432 81.9518108,30.3954865 C81.9672162,30.556027 82.2258649,30.6371081 82.7261351,30.6376486 C82.7172162,30.6376486 83.0534324,30.6179189 83.7350541,30.5773784 C83.9799189,30.5638649 84.3501892,30.5214324 84.8472162,30.4517027 C85.3450541,30.3822432 85.7131622,30.3406216 85.9531622,30.3262973 C86.0534324,30.3208919 86.0747838,30.3965676 86.0155946,30.5527838" id="Fill-21" fill="#FFFFFF"></path>
                    <path d="M98.7964054,23.034027 C98.6091081,23.5294324 98.3064054,24.2764595 97.8877568,25.2718649 C97.4682973,26.2691622 97.1642432,27.0167297 96.9758649,27.5175405 L95.353973,31.8167297 C95.3093784,31.9334865 95.2204595,31.9967297 95.0866757,32.004027 C94.9761351,32.0105135 94.8074865,32.0256486 94.5799189,32.0467297 C94.353973,32.0686216 94.1850541,32.0824054 94.0750541,32.0891622 C93.9545135,32.0961892 93.778027,32.0975405 93.5442432,32.0945676 C93.3120811,32.0913243 93.1366757,32.0929459 93.0158649,32.1005135 C92.9331622,32.1051081 92.8604595,32.0397027 92.7999189,31.9021351 C92.6269459,31.4997027 92.2334324,30.6086216 91.6188378,29.2288919 C91.453973,28.8426757 91.1945135,28.2756486 90.8418108,27.5253784 C90.8328919,27.5007838 90.8085676,27.4767297 90.7677568,27.454027 C90.7196486,27.4867297 90.6828919,27.5353784 90.658027,27.6005135 C90.468027,28.1048378 90.1969459,28.8607838 89.8461351,29.8680811 C89.4953243,30.8751081 89.2245135,31.6313243 89.0345135,32.1356486 C88.9769459,32.2878108 88.8858649,32.3680811 88.7612703,32.3753784 L86.3701892,32.5156486 C86.2361351,32.5232162 86.1947838,32.459973 86.2458649,32.3253784 C86.4237027,31.8553784 86.7145135,31.1453784 87.1204595,30.194027 C87.5277568,29.2437568 87.8193784,28.5302432 87.9988378,28.0572703 C88.1869459,27.5561892 88.448027,26.809973 88.7796486,25.8159189 C89.1118108,24.8224054 89.3720811,24.0788919 89.5596486,23.5821351 C89.5955946,23.4864595 89.7034324,23.4332162 89.8828919,23.4232162 C90.1501892,23.407 90.4864054,23.3705135 90.8915405,23.3124054 C90.9866757,23.2994324 91.1793784,23.259973 91.4693784,23.1961892 C91.7142432,23.1429459 91.9037027,23.1126757 92.0369459,23.1051081 C92.0923514,23.1021351 92.1501892,23.1702432 92.2093784,23.3121351 L93.5296486,26.494027 C93.6469459,26.7813243 93.8285676,27.2005135 94.0758649,27.7510541 C94.1401892,27.8794324 94.213973,27.9402432 94.2969459,27.9351081 C94.3564054,27.9324054 94.4501892,27.7605135 94.5785676,27.4221351 C94.7507297,26.9653784 94.983973,26.2797027 95.2772162,25.3648378 C95.5699189,24.4502432 95.8045135,23.7632162 95.9782973,23.3013243 C96.0393784,23.1405135 96.1174865,23.057 96.2150541,23.0513243 C96.4912703,23.0353784 96.9123514,23.0002432 97.478027,22.9456486 C98.043973,22.8905135 98.4653243,22.8553784 98.7423514,22.8391622 C98.8291081,22.8337568 98.8474865,22.8988919 98.7964054,23.034027" id="Fill-23" fill="#FFFFFF"></path>
                    <path d="M104.823135,26.9096757 C105.100432,26.1750811 105.094216,25.5880541 104.805027,25.1504865 C104.517189,24.6950811 103.985838,24.4904865 103.211784,24.5364324 C102.501784,24.5772432 102.113676,24.6875135 102.046108,24.8656216 C101.949081,25.1223784 101.798811,25.5085946 101.595027,26.0242703 C101.391514,26.5402162 101.240703,26.9264324 101.144216,27.1831892 C101.048811,27.4358919 100.909892,27.8150811 100.728541,28.3204865 C100.545838,28.826973 100.406649,29.2085946 100.310703,29.4645405 C100.239622,29.6518378 100.573135,29.7237297 101.310162,29.6812973 C102.107459,29.6345405 102.828811,29.3477838 103.473405,28.8199459 C104.081784,28.3215676 104.530432,27.684 104.823135,26.9096757 M107.470973,26.7553514 C106.988541,28.0337297 106.134216,29.1680541 104.909081,30.1585946 C103.822054,31.0429189 102.574757,31.5483243 101.166649,31.6723784 C100.896108,31.6977838 100.159892,31.7458919 98.9566486,31.8153514 C98.7307027,31.8288649 98.3936757,31.8426486 97.9444865,31.8561622 C97.4952973,31.8696757 97.158,31.8826486 96.9320541,31.8953514 C96.7988108,31.904 96.7507027,31.8577838 96.7874595,31.7577838 C96.9685405,31.2796757 97.2598919,30.5599459 97.6607027,29.5977838 C98.0617838,28.636973 98.3531351,27.9175135 98.5336757,27.4391351 C98.7223243,26.9385946 98.985027,26.1902162 99.3228649,25.194 C99.6607027,24.1988649 99.9225946,23.4529189 100.110162,22.9572432 C100.144216,22.8658919 100.232054,22.8067027 100.371514,22.7821081 C100.712054,22.7285946 101.255838,22.6788649 102.002054,22.6358919 C103.421243,22.5518378 104.333676,22.5175135 104.738811,22.5321081 C105.791243,22.5726486 106.547459,22.7826486 107.007189,23.1648108 C107.440162,23.5223784 107.692595,24.0437297 107.762865,24.7280541 C107.834757,25.3742703 107.736378,26.0502162 107.470973,26.7553514" id="Fill-25" fill="#FFFFFF"></path>
                    <path d="M113.10727,31.0550541 C112.710243,31.0782973 112.198351,31.1004595 111.568892,31.1201892 C110.745919,31.1512703 110.232676,31.171 110.032135,31.1788378 L107.975919,31.273973 C107.766459,31.2893784 107.472676,31.2982973 107.093486,31.2993784 C106.968081,31.2866757 106.927,31.2226216 106.969162,31.1096486 C107.148622,30.6353243 107.424568,29.9245135 107.797811,28.978027 C108.170784,28.0307297 108.446189,27.3207297 108.625378,26.8469459 C108.815919,26.3423514 109.085919,25.5877568 109.432946,24.5823514 C109.781054,23.5769459 110.048892,22.8228919 110.239973,22.3182973 C110.276189,22.2228919 110.364027,22.1701892 110.501324,22.1623514 C110.639973,22.153973 110.843757,22.1482973 111.113486,22.1455946 C111.382135,22.1423514 111.582676,22.1372162 111.71727,22.1293784 C111.869703,22.1212703 112.098081,22.0993784 112.403486,22.0669459 C112.708081,22.0345135 112.93727,22.0134324 113.089973,22.0045135 C113.158622,22.0007297 113.175378,22.0393784 113.139432,22.1226216 L113.100514,22.2072162 C112.736459,23.0291081 112.210784,24.2607297 111.522135,25.9047838 L110.865919,27.628027 C110.656459,28.1834324 110.504297,28.5901892 110.411865,28.8469459 C110.39673,28.8985676 110.381865,28.951 110.366189,29.0023514 C110.351595,29.0545135 110.374027,29.0853243 110.433486,29.0953243 C110.438622,29.0945135 110.498892,29.0907297 110.613486,29.0847838 C111.028622,29.0596486 111.65673,29.0023514 112.499703,28.9123514 C113.342135,28.8226216 113.971865,28.7653243 114.386189,28.7407297 C114.510243,28.733973 114.553216,28.7807297 114.516459,28.8807297 C114.235919,29.6245135 113.935108,30.2691081 113.617,30.8153243 C113.551054,30.9296486 113.477,30.9993784 113.395108,31.0261351 C113.368892,31.0361351 113.272405,31.0455946 113.10727,31.0550541" id="Fill-27" fill="#FFFFFF"></path>
                    <path d="M125.027946,23.6125946 C124.956865,23.7998919 124.858486,23.965027 124.733351,24.1088108 C123.703351,25.270973 122.433892,26.5039459 120.923081,27.8088108 C120.707405,27.9998919 120.570108,28.1701622 120.514973,28.3177297 C120.427676,28.548 120.311459,28.8936757 120.164703,29.3523243 C120.018486,29.8117838 119.90227,30.1547568 119.817135,30.380973 C119.787135,30.4596216 119.751189,30.5088108 119.707405,30.528 C119.696865,30.5328649 119.630649,30.5471892 119.508486,30.5717838 C119.333351,30.6077297 118.912811,30.6447568 118.250378,30.6836757 C117.580919,30.7234054 117.160919,30.7344865 116.986054,30.7196216 C116.863351,30.7101622 116.822541,30.6507027 116.863892,30.5417838 C116.950919,30.3112432 117.103622,29.9585405 117.323892,29.4844865 C117.543081,29.0098919 117.697135,28.6552973 117.785514,28.4201622 C117.838486,28.280973 117.839297,28.1344865 117.790378,27.9801622 C117.51227,27.2685405 117.145514,26.1766486 116.688486,24.7017838 C116.645784,24.538 116.644973,24.4025946 116.687135,24.2939459 C116.785243,24.0328649 116.919297,23.6417838 117.089027,23.1220541 C117.258486,22.6015135 117.39227,22.2115135 117.490919,21.9501622 C117.544703,21.8069189 117.618216,21.7315135 117.710378,21.7263784 C117.990649,21.7098919 118.412811,21.6966486 118.976595,21.6839459 C119.538757,21.6723243 119.964432,21.6588108 120.249297,21.640973 C120.356054,21.6347568 120.396324,21.6647568 120.37227,21.7298919 C120.288216,21.9515135 120.151189,22.2861081 119.962811,22.7323243 C119.774162,23.1807027 119.637135,23.5147568 119.553622,23.7369189 C119.504432,23.8669189 119.583892,24.180973 119.793081,24.6790811 C119.961189,25.0693514 120.107405,25.3693514 120.230378,25.5790811 C120.498216,25.3588108 120.867405,25.030973 121.338757,24.5952973 C121.932541,24.0501622 122.249027,23.7225946 122.289838,23.6139459 C122.37227,23.3963784 122.478757,23.0685405 122.611189,22.6288108 C122.743892,22.1893514 122.850649,21.860973 122.932811,21.6434054 C122.967405,21.5525946 123.006595,21.4988108 123.053622,21.4834054 L123.226054,21.4734054 C123.50227,21.4569189 123.923351,21.4207027 124.487946,21.3639459 C125.05227,21.3074595 125.474973,21.2707027 125.756054,21.2547568 C125.848216,21.2490811 125.859568,21.3407027 125.788216,21.5271892 C125.70173,21.758 125.575243,22.1047568 125.409838,22.5669189 C125.243622,23.0298919 125.116595,23.3785405 125.027946,23.6125946" id="Fill-29" fill="#FFFFFF"></path>
                    <path d="M44.381027,35.6828919 C44.1885946,37.1901892 43.7915676,38.8128919 43.2026486,40.508027 C42.5991351,42.2391081 41.8283243,43.9758649 40.9126486,45.671 C39.9967027,47.3642432 38.9107568,49.0047838 37.6864324,50.5466757 C36.4723784,52.0742432 35.121027,53.4493784 33.6691351,54.6347838 C32.2407568,55.8023514 30.6802162,56.7661351 29.0315676,57.4993784 C28.8623784,57.5745135 28.6918378,57.6461351 28.5215676,57.713973 C28.8807568,56.8996486 29.2653514,56.0255946 29.6748108,55.0937027 C30.6567027,52.858027 31.6848108,50.4872162 32.731027,48.0482973 C33.8045405,45.5455946 34.8942703,42.9847838 36.0007568,40.3696486 C37.1064324,37.7512703 38.1591351,35.2437027 39.146973,32.8685676 C39.4064324,32.2720811 39.5823784,31.6272162 39.6694054,30.9482973 C39.7718378,30.1493784 39.7053514,29.3728919 39.471027,28.633973 C39.4523784,28.5774865 39.4331892,28.5207297 39.4118378,28.4653243 C39.4575135,28.4615405 39.5023784,28.4577568 39.5475135,28.4545135 C40.1312973,28.4091081 40.6634595,28.4150541 41.1318378,28.4747838 C41.5696757,28.5301892 41.9531892,28.6326216 42.2683243,28.7782973 C42.8802162,29.0599189 43.3380541,29.4428919 43.6691351,29.9482973 C44.0475135,30.5296486 44.2972432,31.2755946 44.4091351,32.1672162 C44.5418378,33.2307297 44.5323784,34.4177568 44.381027,35.6828919 M121.246703,44.8647838 L119.039676,46.1850541 L122.977784,37.3928919 L122.973459,37.3988378 L123.45427,36.3474865 C121.015081,36.3785676 118.586703,36.3307297 116.138324,36.261 C114.451838,36.2126216 112.549946,35.9874865 110.718054,35.948027 C110.054811,36.8550541 109.006162,37.5012703 107.589405,37.5385676 C103.698324,37.6404595 99.8112973,37.3845135 95.9258919,37.5423514 C95.7277838,37.7531622 95.5285946,37.9596486 95.3348108,38.1812703 C95.3150811,37.9764054 95.2802162,37.7742432 95.2345405,37.5734324 C94.7364324,37.6004595 94.2383243,37.6307297 93.7394054,37.6747838 C89.8548108,38.0172162 86.0191351,38.3015405 82.1321081,38.5264054 C78.1529189,38.7564054 74.2515676,39.6582973 70.2721081,39.9158649 C68.184,40.051 66.0642703,40.0215405 64.004,40.4123514 C62.2002162,40.7547838 60.4075135,41.0266757 58.5664324,40.9888378 C56.3929189,40.9434324 55.2145405,39.4801892 54.971027,37.8264054 C54.2394054,38.3620811 53.5256216,38.9685676 52.8421081,39.6534324 C53.1742703,38.2785676 53.4015676,36.9364054 53.4980541,35.6396486 C53.6061622,33.8582973 53.4929189,32.1712703 53.1623784,30.6218108 C52.7831892,28.8461351 51.9788649,27.2988378 50.7721081,26.0215405 C49.5842703,24.7653243 47.9664324,23.8172162 45.9629189,23.2012703 C45.1804865,22.961 44.3064324,22.778027 43.366973,22.6585676 C42.0742703,22.4942432 40.6023784,22.4431622 38.9764324,22.5053243 C36.8912973,22.6026216 34.6694054,22.9988378 32.3723784,23.6858649 C30.1223784,24.3585676 27.9004865,25.2447838 25.7677838,26.3204595 C23.6337297,27.3972162 21.6164324,28.6488378 19.7742703,30.0401892 C17.8880541,31.4658649 16.3118378,32.9920811 15.0977838,34.5666757 C14.3604865,35.5118108 13.8115676,36.581 13.4672432,37.7423514 C13.0983243,38.9823514 13.0145405,40.1999189 13.2164324,41.363973 C13.446973,42.6996486 14.1191351,43.9061351 15.1575135,44.8504595 C16.1131892,45.7212703 17.4067027,46.2658649 19.0026486,46.4685676 C19.1423784,46.4861351 19.2853514,46.5012703 19.4326486,46.5145135 L21.9134595,46.7312703 L21.514,44.2323514 C21.4723784,43.9766757 21.4658919,43.3815405 21.8788649,42.2785676 C22.2642703,41.2477568 22.8607568,40.1366757 23.6515676,38.9769459 C24.4661622,37.7820811 25.4826486,36.5593784 26.6718378,35.341 C27.7823784,34.2061351 28.9999459,33.1593784 30.2958919,32.2277568 C29.731027,33.3618108 29.1572432,34.5342432 28.5802162,35.7264054 C27.7991351,37.3450541 27.016973,38.9547838 26.2358919,40.5585676 L24.0058919,45.1385676 C23.2985946,46.591 22.6448108,47.9412703 22.0442703,49.1907297 C21.4542703,50.4201892 20.9285946,51.4823514 20.4758919,52.3642432 C20.3904865,52.5331622 20.3104865,52.6988378 20.2353514,52.8626216 C20.2750811,52.7220811 20.3196757,52.5804595 20.3680541,52.4382973 L21.1812973,50.0491081 L18.6288649,49.523973 C18.4996757,49.498027 18.3677838,49.4750541 18.2337297,49.4588378 C17.6777838,49.3877568 17.096973,49.4047838 16.5096757,49.5099189 C15.7875135,49.6372162 15.1048108,49.8999189 14.4780541,50.2937027 C13.8634595,50.6804595 13.3091351,51.2077568 12.8302162,51.8601892 C12.3337297,52.5396486 11.9823784,53.3312703 11.7918378,54.1807297 C11.3856216,55.8664054 11.464,57.4704595 12.0226486,58.9491081 C12.5815676,60.4285676 13.5421081,61.6891081 14.8791351,62.6953243 C16.1023784,63.6164054 17.6142703,64.2996486 19.374,64.7285676 C19.9150811,64.8591081 20.4804865,64.9623514 21.0545405,65.0355946 C22.2612973,65.1888378 23.5621081,65.213973 24.9131892,65.1126216 C27.6353514,64.9164054 30.254,64.3074865 32.6977838,63.3023514 C35.0921081,62.3155946 37.3502162,61.0507297 39.4085946,59.5428919 C41.4599459,58.0393784 43.3488649,56.2958649 45.0223784,54.3612703 C45.1618378,54.1999189 45.2899459,54.0337027 45.4267027,53.871 C45.3242703,54.5955946 45.2821081,55.2823514 45.3102162,55.933973 C45.3723784,57.3723514 45.7737297,58.5855946 46.5023784,59.538027 C46.9956216,60.1847838 47.9050811,60.9966757 49.434,61.191 C49.7729189,61.233973 50.1345405,61.2445135 50.5067027,61.221 C52.0648108,61.1264054 53.634,60.4985676 55.1702162,59.3553243 C56.0694054,58.6861351 56.9434595,57.8964054 57.7856216,57.0012703 C57.7842703,57.4299189 57.8491351,57.8334324 57.9856216,58.2201892 C58.4094054,59.4174865 59.3942703,60.2264054 60.6218378,60.3823514 C60.7688649,60.4007297 60.9215676,60.4104595 61.0742703,60.4093784 L61.1331892,60.4093784 L61.1904865,60.4053243 C61.7299459,60.3728919 62.236973,60.2774865 62.7031892,60.1188378 C63.2867027,59.9188378 63.8296757,59.5604595 64.3615676,59.0218108 C64.8080541,58.5691081 65.2380541,57.9631622 65.6756216,57.1685676 C65.6956216,57.1326216 65.7153514,57.0961351 65.7350811,57.0596486 C65.7664324,57.1685676 65.8012973,57.2766757 65.8423784,57.3818108 C66.1975135,58.3096486 66.8245405,59.033973 67.6548108,59.4755946 C68.0483243,59.6858649 68.4718378,59.8207297 68.9145405,59.8777568 C69.3526486,59.9328919 69.8104865,59.9104595 70.2729189,59.8115405 C71.0275135,59.6507297 71.7488649,59.2872162 72.4185946,58.7326216 L72.4534595,58.7020811 C72.6299459,58.5482973 72.8015676,58.3950541 72.9707568,58.2420811 C73.4842703,58.9337027 74.2394054,59.3893784 75.1242703,59.5023514 C75.2696757,59.521 75.4221081,59.5293784 75.5731892,59.5299189 L75.6331892,59.5288378 L75.691027,59.5255946 C76.2302162,59.4928919 76.7388649,59.3966757 77.2061622,59.238027 C77.7902162,59.0393784 78.3318378,58.6793784 78.8631892,58.141 C79.1950811,57.8047838 79.5218378,57.3837027 79.854,56.8615405 C80.7212973,58.451 82.044,58.9599189 82.824,59.1215405 C82.9334595,59.1442432 83.0431892,59.1631622 83.1534595,59.1772162 C84.4712973,59.3445135 85.7537297,58.8855946 86.9542703,57.8231622 C87.7418378,57.1385676 88.4715676,56.4482973 89.1256216,55.7731622 C89.2399459,55.6542432 89.3561622,55.5245135 89.4707568,55.4023514 C89.6499459,55.8401892 89.874,56.2364054 90.1515676,56.588027 C90.9399459,57.5872162 91.9626486,58.2407297 93.1050811,58.4782973 C93.2596757,58.5099189 93.4137297,58.5364054 93.5704865,58.5558649 C94.3642703,58.6566757 95.1777838,58.5966757 95.9885946,58.3785676 C96.8683243,58.1420811 97.5794054,57.8312703 98.1437297,57.4466757 C99.0191351,56.8682973 99.8658919,56.2355946 100.663459,55.5688378 C101.039135,56.3677568 101.624,56.9999189 102.391027,57.3891081 C102.704541,57.5491081 103.035622,57.6631622 103.379135,57.7301892 C102.211027,58.6399189 101.383459,59.5785676 100.858324,60.5882973 C100.235351,61.7828919 99.9748108,62.9401892 100.085081,64.0264054 C100.210757,65.2607297 100.745081,66.341 101.627514,67.1447838 C102.301838,67.7631622 103.133189,68.1493784 104.029135,68.263973 C104.347784,68.303973 104.680757,68.311 105.018595,68.283973 C106.089135,68.1958649 107.141027,67.7582973 108.234,66.9437027 C109.254541,66.1842432 110.172108,65.0491081 111.038595,63.4704595 L111.073189,63.4091081 L114.036973,56.9269459 C115.162919,55.9207297 116.421568,54.6750541 117.783459,53.2199189 C119.262649,51.6420811 121.037784,50.1334324 122.875622,47.7312703 L123.682919,46.7223514 C124.188865,46.0950541 124.506973,45.6185676 124.696162,45.0182973 C124.701027,45.0015405 124.705351,44.9850541 124.710216,44.9677568 C124.722378,44.9228919 124.733459,44.8742432 124.743189,44.8228919 C124.750757,44.7834324 124.756973,44.7428919 124.762378,44.7012703 C124.763459,44.6955946 124.76373,44.6896486 124.765081,44.6834324 C124.840486,43.9907297 124.455081,43.1593784 121.246703,44.8647838" id="Fill-31" fill="#FFFFFF"></path>
                    <path d="M98.607973,49.7839189 C98.5895946,49.8006757 98.572027,49.8136486 98.5531081,49.8312162 C98.5631081,49.8077027 98.5798649,49.7906757 98.607973,49.7839189" id="Fill-33" fill="#F1E9D7"></path>
                    <path d="M97.2476486,50.903027 C97.229,50.9173514 97.2081892,50.9332973 97.1895405,50.9465405 C97.1971081,50.9216757 97.2187297,50.9095135 97.2476486,50.903027" id="Fill-35" fill="#F1E9D7"></path>
                    <path d="M35.0487838,27.634973 C35.7460811,27.6479459 36.2925676,27.7965946 36.6860811,28.0784865 C37.0777027,28.3598378 37.3417568,28.7128108 37.4785135,29.1357838 C37.6133784,29.559027 37.6495946,30.0168649 37.5871622,30.5071351 C37.5236486,30.9979459 37.3990541,31.4576757 37.2133784,31.8860541 C36.2141892,34.2836216 35.1628378,36.7892973 34.0585135,39.4014595 C32.9536486,42.0152432 31.865,44.5717297 30.7928378,47.0717297 C29.7214865,49.572 28.7044595,51.9147027 27.7436486,54.1022703 C26.7828378,56.289027 25.9614865,58.1547027 25.2804054,59.6984865 C24.5306757,59.5768649 23.8533784,59.3879459 23.2501351,59.1330811 C22.6458108,58.8768649 22.1868919,58.5082162 21.8725676,58.0265946 C21.5577027,57.544973 21.4228378,56.9338919 21.4685135,56.1941622 C21.515,55.4538919 21.8131081,54.539027 22.3628378,53.4474054 C22.8204054,52.5576757 23.3487838,51.489027 23.9477027,50.2417297 C24.5477027,48.9944324 25.1985135,47.649027 25.9047297,46.1998378 C26.6095946,44.7525405 27.3533784,43.224973 28.1352703,41.619027 C28.9171622,40.0141622 29.6995946,38.4014595 30.482027,36.7814595 C31.2644595,35.1614595 32.0455405,33.5760541 32.8263514,32.0271351 C33.6058108,30.4768649 34.3452703,29.0136216 35.0487838,27.634973 M24.3506757,60.8392973 C26.3117568,60.7209189 28.1971622,60.2584865 30.0074324,59.4533514 C31.8168919,58.6487568 33.5036486,57.6063243 35.0685135,56.3287568 C36.6325676,55.0511892 38.0647297,53.5936216 39.3663514,51.9571351 C40.6660811,50.3195676 41.802027,48.6022703 42.7744595,46.8033514 C43.7463514,45.0060541 44.5504054,43.1892973 45.1893243,41.3563243 C45.8271622,39.5222703 46.2517568,37.7795676 46.4633784,36.1236216 C46.637973,34.6668649 46.6471622,33.3165946 46.4914865,32.0744324 C46.3355405,30.8317297 45.9690541,29.7684865 45.3922973,28.884973 C44.8147297,28.0014595 44.0193243,27.3268649 43.0063514,26.859027 C41.9914865,26.392 40.7268919,26.219027 39.2131081,26.3384865 C37.4733784,26.472 35.7574324,26.8968649 34.0641892,27.6114595 C32.3704054,28.3265946 30.7731081,29.2092973 29.2752703,30.2601081 C27.7760811,31.3103784 26.3909459,32.4868649 25.1198649,33.7882162 C23.8474324,35.0909189 22.7706757,36.3868649 21.8914865,37.6784865 C21.0112162,38.9692973 20.3493243,40.2068649 19.9071622,41.3882162 C19.4644595,42.5701081 19.3095946,43.5741622 19.4417568,44.4006486 C18.1325676,44.2852432 17.1487838,43.9274054 16.4898649,43.3271351 C15.8306757,42.7284865 15.4290541,42.0082162 15.2833784,41.1684865 C15.137973,40.3284865 15.2039189,39.4409189 15.4822973,38.5063243 C15.7595946,37.5703784 16.1955405,36.7238919 16.7866216,35.9638919 C17.9117568,34.5047027 19.3560811,33.109027 21.1185135,31.7787568 C22.8801351,30.4460541 24.7831081,29.2665946 26.8263514,28.2355135 C28.8687838,27.2055135 30.9663514,26.369027 33.1185135,25.7244324 C35.2706757,25.0817297 37.3131081,24.7147027 39.2455405,24.6247027 C41.792027,24.5263243 43.8798649,24.7271351 45.5082432,25.2271351 C47.1352703,25.7271351 48.4036486,26.4582162 49.3125676,27.4198378 C50.2204054,28.3809189 50.8214865,29.5430811 51.1114865,30.9041622 C51.402027,32.2652432 51.4987838,33.7422703 51.4022973,35.3363243 C51.2674324,37.1552432 50.8709459,39.0798378 50.2104054,41.1122703 C49.5495946,43.1447027 48.645,45.1560541 47.4968919,47.1476757 C46.3487838,49.1392973 44.9806757,51.0536216 43.3914865,52.8917297 C41.8036486,54.7287568 40.035,56.3617297 38.0868919,57.7887568 C36.1390541,59.2171351 34.0331081,60.394973 31.7706757,61.3279459 C29.5087838,62.2576757 27.1160811,62.8136216 24.5925676,62.9960541 C22.7982432,63.1317297 21.1677027,63.022 19.7014865,62.6660541 C18.2352703,62.3103784 17.0152703,61.7647027 16.0409459,61.0311892 C15.0660811,60.2974054 14.377973,59.4001081 13.9771622,58.339027 C13.5758108,57.2787568 13.527973,56.1128108 13.8344595,54.8406486 C13.9731081,54.2217297 14.2136486,53.6782162 14.5541892,53.212 C14.8955405,52.7460541 15.2744595,52.3830811 15.6914865,52.1201081 C16.1077027,51.8595676 16.5552703,51.6852432 17.0347297,51.6006486 C17.5133784,51.5155135 17.9609459,51.5168649 18.3763514,51.6028108 C17.9604054,52.8241622 17.7906757,54.0038919 17.8671622,55.1401081 C17.9444595,56.2760541 18.2431081,57.2801081 18.7636486,58.1525405 C19.2852703,59.0257838 20.0171622,59.7114595 20.9609459,60.2098378 C21.9028378,60.7098378 23.032027,60.9201081 24.3506757,60.8392973" id="Fill-37" fill="#773600"></path>
                    <path d="M51.4911892,56.6042973 C51.9401081,56.5497027 52.482,56.1480811 53.1157838,55.3997027 C53.7495676,54.6521351 54.4106486,53.7010541 55.1041622,52.5451081 C54.8528108,51.8932162 54.7644324,51.0364595 54.8379459,49.9737568 C54.8903784,49.3864595 55.0468649,48.8553784 55.304973,48.379973 C55.5625405,47.9051081 55.8655135,47.5326757 56.2128108,47.2607838 C56.5592973,46.9891622 56.8947027,46.8434865 57.2163243,46.8237568 C57.5384865,46.8037568 57.7917297,46.9288919 57.9757838,47.1956486 C58.4674054,46.1642973 58.9033514,45.164027 59.2801081,44.1951081 C59.6565946,43.2261892 59.9528108,42.3656486 60.1674054,41.6153784 C60.3811892,40.8661892 60.4974054,40.2664595 60.5171351,39.8205135 C60.5357838,39.3751081 60.4203784,39.1586216 60.1674054,39.1742973 C59.5787568,39.2088919 58.8887568,39.6691622 58.0955135,40.5524054 C57.3028108,41.4353784 56.4933514,42.5342973 55.6687568,43.8507838 C54.8428108,45.1667297 54.0622703,46.5775405 53.3257838,48.0834865 C52.5909189,49.5886216 51.999027,50.9807838 51.5533514,52.259973 C51.1063243,53.5391622 50.8509189,54.5983514 50.7874054,55.4359189 C50.7228108,56.2756486 50.9579459,56.6642973 51.4911892,56.6042973 M50.2098378,59.1026757 C49.2568649,59.1610541 48.562,58.9051081 48.1255135,58.3321351 C47.6884865,57.7602432 47.4495676,56.9894324 47.4079459,56.0178108 C47.3663243,55.0464595 47.512,53.9318649 47.8455135,52.6729459 C48.1795676,51.4151081 48.6544324,50.1194324 49.2714595,48.7878108 C49.8876757,47.4567297 50.6147027,46.1464595 51.4528108,44.857 C52.2909189,43.5688919 53.2152432,42.4072703 54.2244324,41.3707838 C55.232,40.3359189 56.2892973,39.4926757 57.3941622,38.8415946 C58.4976757,38.1902432 59.6098378,37.8297027 60.7314595,37.7621351 C61.8801081,37.6926757 62.6395676,38.0783514 63.0079459,38.9183514 C63.3757838,39.7583514 63.4479459,40.8597027 63.222,42.2229459 C62.9955135,43.5864595 62.524973,45.097 61.8111892,46.7545676 C61.0963243,48.4113243 60.2301081,50.0218649 59.2117297,51.5864595 C59.662,51.5313243 60.1771351,51.2424054 60.7587568,50.719973 C61.3401081,50.1986216 61.919027,49.5921351 62.4933514,48.9034865 C63.0687568,48.2153784 63.6071351,47.5280811 64.1125405,46.8448378 C64.6165946,46.1594324 65.0322703,45.6137568 65.3576757,45.2029459 C65.3565946,45.2307838 65.3728108,45.3275405 65.4079459,45.4918649 C65.4430811,45.6572703 65.4476757,45.8794324 65.4214595,46.1594324 C65.3938919,46.4394324 65.3168649,46.7710541 65.1895676,47.1537568 C65.0611892,47.5383514 64.8336216,47.9486216 64.5068649,48.3851081 C64.1501081,48.9078108 63.7930811,49.3883514 63.4384865,49.827 C62.9057838,50.4994324 62.3847027,51.1018649 61.8725405,51.6332162 C61.3609189,52.1651081 60.9028108,52.5680811 60.4998378,52.8434865 C59.3730811,53.6913243 58.3341622,54.1164595 57.3847027,54.1178108 C56.2611892,55.5218649 55.0782162,56.6861892 53.8368649,57.6097027 C52.5952432,58.534027 51.3865946,59.0315946 50.2098378,59.1026757" id="Fill-39" fill="#773600"></path>
                    <path d="M68.1199459,46.2875676 C69.4534595,44.5091892 70.6085946,43.0205405 71.5821081,41.82 C72.5561622,40.6208108 73.3872432,39.6597297 74.0750811,38.9351351 C74.7626486,38.2113514 75.3299459,37.697027 75.7772432,37.3910811 C76.2234595,37.0864865 76.6007568,36.9240541 76.9096757,36.9054054 C77.8623784,36.8481081 78.2683243,37.4767568 78.1275135,38.7935135 C78.0758919,39.3259459 77.9307568,39.9472973 77.6907568,40.6556757 C77.4504865,41.3667568 77.104,42.2359459 76.6556216,43.2654054 C76.2064324,44.2937838 75.6491351,45.5245946 74.9875135,46.9562162 C74.324,48.3875676 73.5442703,50.09 72.6494054,52.0645946 C72.2750811,52.9783784 72.0880541,53.5589189 72.0915676,53.81 C72.0953514,54.0597297 72.2407568,54.0727027 72.5304865,53.8454054 C72.8196757,53.6197297 73.2361622,53.1905405 73.7818378,52.5591892 C74.3253514,51.9283784 74.931027,51.1751351 75.5975135,50.3 C76.2637297,49.4243243 76.9837297,48.4697297 77.7550811,47.4348649 C78.5256216,46.4 79.2967027,45.3735135 80.0672432,44.3513514 C80.0934595,44.407027 80.1234595,44.522973 80.1577838,44.7013514 C80.1915676,44.8805405 80.1950811,45.1024324 80.1699459,45.3675676 C80.1448108,45.6351351 80.0677838,45.9521622 79.9402162,46.3208108 C79.8131892,46.6910811 79.5861622,47.0802703 79.2612973,47.4889189 C78.3437297,48.6862162 77.5358919,49.73 76.8418378,50.6208108 C76.1461622,51.5118919 75.4899459,52.3237838 74.871027,53.0567568 C74.2515676,53.79 73.6423784,54.4737838 73.0418378,55.1083784 C72.4418378,55.7435135 71.7629189,56.3897297 71.0085946,57.0472973 C70.574,57.4086486 70.1302162,57.637027 69.6791351,57.7335135 C69.2280541,57.8305405 68.8391351,57.7916216 68.5099459,57.6159459 C68.1826486,57.4421622 67.9437297,57.1581081 67.7929189,56.762973 C67.6418378,56.3683784 67.6485946,55.8745946 67.8158919,55.2797297 C68.271027,53.7772973 68.8734595,52.1348649 69.6215676,50.3494595 C70.3694054,48.5659459 71.2180541,46.6837838 72.1707568,44.7056757 C72.4472432,44.1324324 72.5175135,43.7813514 72.384,43.6491892 C72.2485946,43.5186486 71.9467027,43.7178378 71.4775135,44.2472973 C71.1529189,44.6291892 70.7707568,45.0837838 70.3291351,45.6102703 C69.8872432,46.1383784 69.4288649,46.6954054 68.9561622,47.2805405 C68.4834595,47.8656757 68.011027,48.4575676 67.5394054,49.0564865 C67.0658919,49.6562162 66.6212973,50.2189189 66.2080541,50.7445946 L65.041027,53.4862162 C64.5758919,54.5440541 64.1696757,55.3902703 63.8202162,56.022973 C63.4723784,56.6572973 63.136973,57.1362162 62.8156216,57.4613514 C62.4931892,57.7867568 62.1837297,58 61.8864324,58.1024324 C61.5883243,58.2040541 61.2580541,58.2648649 60.8934595,58.287027 C60.4180541,58.2886486 60.1053514,58.0781081 59.9567027,57.6559459 C59.8072432,57.2335135 59.8894054,56.6232432 60.2021081,55.8254054 C60.644,54.6859459 61.1596757,53.4097297 61.7518378,51.9959459 C62.344,50.5818919 62.9796757,49.1245946 63.6588649,47.6224324 C64.3388649,46.1205405 65.0542703,44.602973 65.8053514,43.0686486 C66.5550811,41.5345946 67.2953514,40.0918919 68.0258919,38.7383784 C68.3288649,38.1635135 68.7029189,37.7656757 69.1464324,37.5437838 C69.5888649,37.3227027 70.0131892,37.2064865 70.4194054,37.1951351 C70.8245405,37.1854054 71.156973,37.2691892 71.4150811,37.4483784 C71.6715676,37.6278378 71.7548108,37.8167568 71.6618378,38.017027 L68.1199459,46.2875676 Z" id="Fill-41" fill="#773600"></path>
                    <path d="M105.307432,62.7706216 C105.001216,63.4011622 104.705541,63.7522432 104.423378,63.8262973 C104.140946,63.8987297 103.977973,63.7835946 103.935541,63.4806216 C103.892027,63.176027 104.030676,62.7146757 104.351216,62.0987297 C104.670946,61.4800811 105.293649,60.8098108 106.219595,60.0857568 C106.365,59.9373784 106.525,59.8162973 106.696892,59.7230541 L105.307432,62.7706216 Z M113.443649,53.0976486 C113.566892,52.8317027 113.69473,52.556027 113.626622,52.6249459 L121.635811,35.1081892 C121.728784,34.909 121.652297,34.7262973 121.407703,34.5587297 C121.16473,34.3933243 120.838514,34.316027 120.433919,34.3271081 C120.027162,34.3379189 119.595541,34.4541351 119.139865,34.6771081 C118.682297,34.899 118.301757,35.2838649 117.998784,35.8295405 C117.363649,36.9541351 116.741486,38.0844054 116.134189,39.2203514 C115.525811,40.3562973 114.945,41.5122432 114.392027,42.686027 C113.620676,43.7068378 112.86473,44.7130541 112.122838,45.7033243 C111.382027,46.6952162 110.692297,47.6062973 110.055541,48.4365676 C109.418784,49.2695405 108.850405,49.9784595 108.349324,50.5665676 C107.848243,51.1533243 107.461486,51.551973 107.187162,51.7627838 C106.911757,51.9741351 106.773919,51.9487297 106.770946,51.6841351 C106.768784,51.4195405 106.953919,50.8449459 107.328243,49.9595405 L113.818243,35.5838649 C113.909324,35.3841351 113.826892,35.2006216 113.568784,35.0352162 C113.309054,34.8711622 112.976892,34.7933243 112.572297,34.8038649 C112.166081,34.8146757 111.741486,34.9303514 111.299865,35.1525135 C110.856622,35.3741351 110.482838,35.759 110.180676,36.3049459 C109.451486,37.6579189 108.714189,39.0444054 107.967973,40.4668378 C107.220946,41.8892703 106.516081,43.3173784 105.854459,44.7479189 C105.191216,46.1806216 104.570676,47.6095405 103.992568,49.0349459 C103.413919,50.461973 102.928514,51.8406216 102.535811,53.1717027 C102.341757,53.7676486 102.320676,54.2638649 102.472297,54.6571081 C102.621757,55.0522432 102.867162,55.3357568 103.210135,55.5100811 C103.552027,55.6841351 103.948514,55.7222432 104.400676,55.626027 C104.851216,55.5295405 105.279865,55.3025135 105.686892,54.9425135 C106.267703,54.4341351 106.806892,53.9362973 107.303378,53.4465676 C107.799595,52.9573784 108.289595,52.4473784 108.773378,51.9168378 C109.257432,51.3871081 109.743378,50.8149459 110.231216,50.2000811 C110.718784,49.5871081 111.244189,48.9152162 111.806081,48.1857568 C111.096351,49.7311622 110.408514,51.2687297 109.741216,52.7976486 C109.074189,54.3265676 108.400405,55.8492703 107.721216,57.3654865 L105.084459,59.1946757 C103.959324,60.0141351 103.175541,60.8473784 102.734459,61.6954865 C102.292027,62.5425135 102.105541,63.3054865 102.174189,63.9830541 C102.242297,64.6614324 102.50527,65.2081892 102.961757,65.626027 C103.419054,66.0435946 103.991216,66.2246757 104.679595,66.1687297 C105.365811,66.1127838 106.106892,65.7900811 106.900676,65.199 C107.69473,64.6079189 108.455811,63.6503514 109.184459,62.3268378 L112.219595,55.686027 C114.094459,54.0157568 119.18473,49.4400811 121.141757,47.3065676 C123.167703,45.099 116.870946,50.1262973 113.443649,53.0976486 Z" id="Fill-43" fill="#773600"></path>
                    <path d="M93.4031351,47.7906757 C92.8623243,48.6022973 92.2936757,49.3804054 91.6963784,50.1274324 C91.0982703,50.8736486 90.505027,51.5404054 89.9144865,52.1277027 C89.3239459,52.7155405 88.7517838,53.1852703 88.1988108,53.5355405 C87.6458378,53.8863514 87.1625946,54.0566216 86.7520541,54.0463514 C86.3371892,54.0677027 86.0490811,53.9333784 85.8866486,53.6431081 C85.7244865,53.3533784 85.7325946,52.9890541 85.910973,52.5493243 C86.0890811,52.0777027 86.3236757,51.6163514 86.6134054,51.1625676 C86.9020541,50.7101351 87.1685405,50.2655405 87.4101622,49.8268919 C87.6504324,49.3895946 87.8358378,48.9331081 87.9685405,48.4606757 C88.0996216,47.987973 88.098,47.4812162 87.9623243,46.9374324 C87.7996216,46.2993243 87.375027,45.8206757 86.6907027,45.5001351 C86.0058378,45.1825676 85.1855676,45.0582432 84.2301622,45.1282432 L84.5717838,44.9466216 C85.8182703,44.7571622 86.970973,44.485 88.0325946,44.1312162 C89.0923243,43.7774324 90.0020541,43.3647297 90.7598919,42.8917568 C91.5177297,42.4190541 92.1139459,41.8952703 92.5463784,41.3187838 C92.9790811,40.7433784 93.2093514,40.1393243 93.2371892,39.5041892 C93.2588108,38.9987838 93.1420541,38.5985135 92.8882703,38.3060811 C92.6355676,38.0141892 92.3139459,37.8001351 91.9271892,37.6622973 C91.5401622,37.5258108 91.1042162,37.475 90.6158378,37.5104054 C90.1271892,37.5452703 89.6604324,37.6368919 89.2144865,37.7839189 C89.2090811,38.6404054 88.8385405,39.4955405 88.1031351,40.3498649 C87.3685405,41.2031081 86.4428649,42.0528378 85.3266486,42.8966216 C84.7863784,43.3041892 84.220973,43.7122973 83.6334054,44.1198649 C83.6493514,43.9941892 83.6677297,43.8728378 83.690973,43.772027 C83.8058378,43.2812162 83.9785405,42.8106757 84.1761081,42.3504054 C84.1177297,42.4385135 84.0593514,42.5212162 83.9998919,42.6106757 L87.5504324,34.5304054 C85.5198919,32.2485135 83.3777297,35.5960811 83.3777297,35.5960811 C83.1515135,36.0660811 82.9231351,36.5433784 82.6882703,37.035 C81.8890811,38.7106757 81.0807027,40.4504054 80.2625946,42.2531081 C79.4434054,44.0558108 78.6712432,45.7725676 77.9444865,47.4022973 C77.2169189,49.0331081 76.5655676,50.5122973 75.9912432,51.8406757 C75.4174595,53.1690541 74.988,54.2174324 74.7036757,54.9860811 C74.3904324,55.7571622 74.3077297,56.3531081 74.458,56.7755405 C74.6085405,57.197973 74.9198919,57.4087838 75.3944865,57.4071622 C75.7588108,57.3855405 76.0907027,57.3233784 76.3888108,57.2217568 C76.6863784,57.1198649 76.9955676,56.9071622 77.3163784,56.5817568 C77.6382703,56.2558108 77.9812432,55.7763514 78.3439459,55.1417568 C78.7063784,54.5077027 79.120973,53.6477027 79.5871892,52.5606757 L80.6563784,50.1601351 C80.9736757,49.6552703 81.3652973,49.0398649 81.8266486,48.3185135 C81.9944865,47.9628378 82.1652973,47.6068919 82.3347568,47.2509459 C82.3482703,47.2509459 82.3625946,47.2471622 82.3758378,47.2463514 C82.7893514,47.242027 83.0693514,47.3682432 83.2174595,47.6258108 C83.3634054,47.9139189 83.3582703,48.2325676 83.200973,48.5777027 C83.0428649,48.9228378 82.8266486,49.3217568 82.5531351,49.7741892 C82.2788108,50.2268919 82.0039459,50.7198649 81.7266486,51.2522973 C81.4498919,51.7852703 81.2661081,52.3674324 81.1752973,52.9985135 C81.0639459,54.1068919 81.2958378,54.9706757 81.8731351,55.5871622 C82.4501622,56.205 83.278,56.5268919 84.3563784,56.555 C85.3074595,56.5801351 86.2128649,56.3809459 87.0736757,55.9585135 C87.9331351,55.5352703 88.7707027,54.9625676 89.5874595,54.2377027 C90.4039459,53.5141892 91.2117838,52.6522973 92.0093514,51.6582432 C92.8074595,50.6633784 93.6420541,49.6052703 94.5169189,48.4855405 L93.4031351,47.7906757 Z" id="Fill-45" fill="#773600"></path>
                    <path d="M103.453568,36.7547297 C102.940865,36.9814865 102.383838,37.4109459 101.783297,38.0460811 C101.184108,38.6812162 100.577351,39.4412162 99.9670811,40.3271622 C99.3549189,41.2122973 98.7619459,42.1668919 98.1878919,43.1895946 C97.6119459,44.2128378 97.0922162,45.2385135 96.6287027,46.2682432 C97.368973,45.9455405 98.1522162,45.4601351 98.9765405,44.8109459 C99.8014054,44.1625676 100.579243,43.4552703 101.311946,42.6868919 C102.042216,41.9195946 102.677892,41.1290541 103.21627,40.3171622 C103.753568,39.5058108 104.093027,38.7612162 104.23627,38.085 C104.270324,37.9158108 104.305459,37.7333784 104.342216,37.5358108 C104.379243,37.3393243 104.380595,37.157973 104.345189,36.9933784 C104.310595,36.8285135 104.224378,36.7160811 104.086811,36.6547297 C103.949784,36.5931081 103.738432,36.6266216 103.453568,36.7547297 M96.8954595,55.6425676 C96.4911351,55.917973 95.9576216,56.1452703 95.2935676,56.3244595 C94.628973,56.5039189 93.9857297,56.5295946 93.3622162,56.4004054 C92.7384324,56.2714865 92.2016757,55.9222973 91.7500541,55.3501351 C91.3003243,54.7795946 91.0732973,53.8822973 91.0708649,52.657973 C91.0605946,51.5728378 91.2676216,50.3641892 91.6878919,49.0306757 C92.108973,47.697973 92.6632973,46.3568919 93.3503243,45.0060811 C94.0373514,43.6571622 94.8481622,42.3558108 95.7824865,41.102027 C96.7173514,39.8498649 97.7081622,38.7601351 98.7538378,37.8333784 C99.7995135,36.907973 100.877892,36.1955405 101.990324,35.6958108 C103.101946,35.1985135 104.184919,35.0268919 105.240595,35.1855405 C105.740324,35.2671622 106.123568,35.4314865 106.393027,35.6790541 C106.661946,35.9277027 106.852216,36.2082432 106.965189,36.522027 C107.076541,36.8352703 107.132757,37.1509459 107.132757,37.4709459 C107.133838,37.7909459 107.114378,38.0636486 107.077892,38.2885135 C106.884378,39.525 106.355189,40.7593243 105.492216,41.9947297 C104.626811,43.2304054 103.624108,44.3133784 102.480054,45.2455405 C101.334919,46.1777027 100.171946,46.887973 98.9916757,47.3777027 C97.8111351,47.8658108 96.8208649,47.967973 96.0227568,47.6822973 C95.3665405,49.3087838 94.9849189,50.6671622 94.8832973,51.7585135 C94.8122162,52.7374324 94.9662703,53.3598649 95.3465405,53.6298649 C95.726,53.8987838 96.2422162,53.9028378 96.8976216,53.6404054 C97.5516757,53.377973 98.3197838,52.8852703 99.2046486,52.1644595 C100.087351,51.4428378 100.997892,50.5939189 101.934378,49.6193243 C102.784649,48.7058108 103.670324,47.622027 104.589514,46.3695946 C105.509784,45.1171622 106.444108,43.8777027 107.392216,42.6512162 C107.390595,42.6793243 107.414108,42.7822973 107.462486,42.9601351 C107.510595,43.137973 107.528703,43.3663514 107.517081,43.6463514 C107.504919,43.9244595 107.434378,44.2493243 107.307351,44.6193243 C107.179243,44.9882432 106.938973,45.3917568 106.583568,45.8304054 C105.666541,47.0277027 104.801405,48.1033784 103.991405,49.0566216 C103.181676,50.0112162 102.389243,50.8855405 101.614378,51.6839189 C100.840054,52.4828378 100.067622,53.2044595 99.3000541,53.8482432 C98.5305946,54.4939189 97.7287027,55.0917568 96.8954595,55.6425676" id="Fill-47" fill="#773600"></path>
                    <path d="M18.9135946,0.347162162 C18.9135946,0.347162162 13.029,10.7701351 21.6149459,15.7982432 L25.0838649,15.0344595 C25.0838649,15.0344595 18.9630541,5.85527027 18.9135946,0.347162162" id="Fill-49" fill="#2E261D"></path>
                    <path d="M29.5162973,12.2646757 C29.5162973,12.2646757 20.6538649,6.78521622 18.9135946,0.347108108 C18.9135946,0.347108108 19.0784595,11.0930541 24.0971081,14.9133243 C24.0971081,14.9133243 28.1995405,14.5395405 29.5162973,12.2646757" id="Fill-51" fill="#83776E"></path>
                    <path d="M13.9168919,27.0693514 C13.9168919,27.0693514 14.4982432,25.3925946 15.7266216,24.8296216 C16.955,24.2666486 16.9344595,23.7344865 16.9344595,23.7344865 C17.1239189,17.3369189 19.8904054,14.8615135 21.1344595,14.0677297 C22.3593243,13.7636757 23.5204054,13.230973 24.5487838,12.5034054 C30.1358108,11.2077297 33.4941892,13.5728649 34.5339189,14.478 C35.2322973,16.4028649 36.5087838,18.1058378 38.2131081,19.2963784 C38.4066216,19.4639459 38.6047297,19.6263784 38.8109459,19.7785405 C38.8836486,20.4466486 38.847973,20.4825946 38.8295946,20.4617838 C38.8898649,20.5996216 39.3266216,21.8182703 41.4831081,30.2696216 C45.1922973,44.8115135 36.612027,46.9815135 30.6028378,49.2701622 C24.5947297,51.5577297 22.5960811,56.8393514 22.5960811,56.8393514 L8.90391892,34.4763784 L13.9168919,27.0693514 Z" id="Fill-53" fill="#83776E"></path>
                    <path d="M20.6633514,22.9229189 C20.6633514,22.9229189 18.6265946,28.5945405 15.4665946,29.0394054 C15.4665946,29.0394054 13.3036216,28.5372432 13.2228108,28.094 L13.8714595,27.1367027 C13.8714595,27.1367027 14.2587568,26.1923784 14.5709189,25.8615676 C14.8830811,25.5318378 20.2557838,21.7180541 20.6633514,22.9229189" id="Fill-55" fill="#756A63"></path>
                    <path d="M29.2918108,34.042 C29.2918108,34.042 33.4647838,31.4744324 38.7937027,35.5241622 C38.7937027,35.5241622 33.0166757,34.4498378 29.7858649,41.8203784 L29.2918108,34.042 Z" id="Fill-57" fill="#998E87"></path>
                    <path d="M6.52445946,32.8191892 C6.52445946,32.8191892 4.06905405,30.2602703 3.48986486,33.1248649 C2.91121622,35.9881081 3.96959459,37.5443243 4.92391892,37.8478378 C6.19851351,38.2527027 6.52445946,32.8191892 6.52445946,32.8191892" id="Fill-59" fill="#D3D2C9"></path>
                    <path d="M9.241,50.0143514 C9.241,50.0143514 8.13451351,51.7619189 11.2582973,53.3611081 C14.3820811,54.9592162 21.3691081,54.095973 22.2874865,52.6067838 C23.2077568,51.1167838 28.0128919,43.6105676 28.7531622,40.283 C29.4942432,36.9565135 27.1088378,33.6527297 24.6174865,36.4857027 C22.1247838,39.320027 11.6955946,42.2089459 11.6955946,42.2089459 L9.241,50.0143514 Z" id="Fill-61" fill="#7C0002"></path>
                    <path d="M4.36810811,43.8955135 C4.36810811,43.8955135 3.57702703,50.2176757 8.47648649,50.8214595 C8.47648649,50.8214595 12.6989189,52.1838919 14.6181081,48.7165946 C14.6181081,48.7165946 18.0659459,49.5768649 18.8272973,47.3376757 C18.8272973,47.3376757 20.9245946,47.1933514 22.2327027,45.0325405 C22.2327027,45.0325405 25.1805405,43.0657838 25.1810811,39.9368649 C25.1810811,39.9368649 6.22405405,42.8774054 4.36810811,43.8955135" id="Fill-63" fill="#FFFFFF"></path>
                    <path d="M36.1565135,12.4607568 C36.1565135,12.4607568 34.8713784,8.75345946 30.0365135,7.89481081 C30.0365135,7.89481081 31.0489459,9.16751351 30.8670541,9.93805405 C30.8670541,9.93805405 26.0575946,6.75264865 22.4827297,9.68805405 C22.4827297,9.68805405 24.3097568,10.046973 24.8127297,11.0642703 C24.8127297,11.0642703 22.0554324,13.4331892 23.7857027,17.2926486 C23.7857027,17.2926486 24.620027,14.9283243 26.6284054,14.3358919 C26.6284054,14.3358919 26.2405676,16.1783243 27.3986757,17.636973 C27.3986757,17.636973 29.3873243,12.9388649 33.2446216,13.5607568 L33.4167838,13.6648108 L36.1565135,12.4607568 Z" id="Fill-65" fill="#2E261D"></path>
                    <path d="M5.66440541,31.4113514 C5.66440541,31.4113514 10.7927838,24.14 17.6238649,30.7167568 C24.4554865,37.2940541 22.5917027,33.5513514 27.8862973,33.7083784 C33.1811622,33.8654054 30.0427838,42.982973 27.2544054,46.3435135 C24.4676486,49.7048649 22.7938649,54.2816216 22.596027,56.8394595 C22.3892703,59.5189189 12.8449459,60.7832432 11.0084595,54.6435135 C11.0084595,54.6435135 9.41413514,53.0748649 8.95467568,51.0678378 C8.95467568,51.0678378 20.8879189,58.1091892 25.2298108,45.5083784 C29.5730541,32.9089189 26.619,37.8389189 25.6198108,39.3340541 C24.6198108,40.8283784 19.5452162,47.3264865 8.77251351,45.1891892 C-1.99937838,43.0508108 3.67467568,39.4635135 3.67467568,39.4635135 C3.67467568,39.4635135 3.39737838,35.987027 5.66440541,31.4113514" id="Fill-67" fill="#F0EFE4"></path>
                    <path d="M33.8470811,13.4038108 C33.8470811,13.4038108 41.1000541,10.7305676 43.5197838,7.94408108 C45.9381622,5.15624324 50.7132973,-0.220513514 50.8214054,4.083 C50.9319459,8.38651351 51.0316757,20.4578649 36.8362703,19.6632703 C36.8362703,19.6632703 28.593027,16.3294865 33.8470811,13.4038108" id="Fill-69" fill="#83776E"></path>
                    <path d="M35.2188919,14.7704595 C35.2188919,14.7704595 42.5380811,13.2672162 47.7280811,5.72505405 C47.7280811,5.72505405 48.8572703,6.30343243 47.414027,10.4955946 C45.9707838,14.6888378 41.5548378,18.5923514 36.8621351,17.8650541 C36.8621351,17.8650541 34.5656486,17.0804595 37.5937568,16.5942432 C37.5937568,16.5942432 37.3472703,15.4750541 34.9415946,15.6407297 C34.9415946,15.6407297 34.2545676,15.0377568 35.2188919,14.7704595" id="Fill-71" fill="#2E261D"></path>
                    <path d="M13.5844595,37.7252162 C13.3136486,38.8603514 13.6377027,39.9114324 14.3098649,40.071973 C14.9809459,40.2330541 15.7460811,39.4422432 16.0174324,38.3073784 C16.2882432,37.1706216 15.9641892,36.1195405 15.2922973,35.9592703 C14.6206757,35.7979189 13.8555405,36.589 13.5844595,37.7252162" id="Fill-73" fill="#2E261D"></path>
                    <path d="M17.9024595,37.1168649 C17.9024595,37.1168649 17.9181351,36.6628108 17.7086757,36.019027 C17.6594865,35.8579459 17.5932703,35.6844324 17.5073243,35.5079459 C17.4205676,35.3309189 17.3238108,35.1428108 17.1911081,34.9665946 C17.0584054,34.7906486 16.9165135,34.6033514 16.7235405,34.4487568 C16.5370541,34.2941622 16.320027,34.1501081 16.0711081,34.0628108 C15.8248919,33.9830811 15.5573243,33.9287568 15.303,33.9552432 C15.0454324,33.9652432 14.8078649,34.0422703 14.5973243,34.1271351 C14.3848919,34.2138919 14.2027297,34.3330811 14.040027,34.4474054 C13.8808378,34.5682162 13.7375946,34.6887568 13.6219189,34.8147027 C13.4975946,34.9303784 13.4032703,35.0544324 13.3186757,35.1614595 C13.2311081,35.2655135 13.1657027,35.3657838 13.1146216,35.4495676 C13.0108378,35.6136216 12.9573243,35.7117297 12.9573243,35.7117297 C12.9573243,35.7117297 13.0551622,35.654973 13.2167838,35.5506486 C13.375973,35.4460541 13.6067838,35.3011892 13.8778649,35.1441622 C14.0124595,35.062 14.1651622,34.994973 14.3189459,34.9138919 C14.4767838,34.8447027 14.6432703,34.7836216 14.8121892,34.7311892 C14.895973,34.7047027 14.9835405,34.6947027 15.0692162,34.6736216 C15.1551622,34.6757838 15.2427297,34.6536216 15.3265135,34.6603784 C15.4981351,34.6541622 15.6624595,34.6936216 15.8235405,34.7482162 C15.9848919,34.7987568 16.135973,34.8974054 16.2843514,35.0001081 C16.4305676,35.1057838 16.5692162,35.2338919 16.6948919,35.3676757 C16.945973,35.6395676 17.1570541,35.934973 17.333,36.1976757 C17.5065135,36.4622703 17.6492162,36.6922703 17.745973,36.8568649 C17.8451622,37.0222703 17.9024595,37.1168649 17.9024595,37.1168649" id="Fill-75" fill="#D3D2C9"></path>
                    <path d="M3.67459459,39.4635135 C3.67459459,39.4635135 5.65648649,42.3837838 12.6156757,43.0081081 C12.6156757,43.0081081 7.30513514,43.8743243 2.65702703,40.4016216 C2.65702703,40.4016216 3.08945946,39.8027027 3.67459459,39.4635135" id="Fill-77" fill="#D3D2C9"></path>
                    <path d="M10.8895676,54.5184054 C10.8895676,54.5184054 14.4574054,56.223 18.4547027,54.760027 C18.4547027,54.760027 15.334973,57.3157027 11.5968649,55.9905676 C11.5968649,55.9905676 11.0187568,54.9938108 10.8895676,54.5184054" id="Fill-79" fill="#D3D2C9"></path>
                    <path d="M8.0327027,50.7475676 C8.0327027,50.7475676 8.72972973,49.8991892 8.52135135,47.7802703 C8.52135135,47.7802703 8.90027027,50.7686486 9.50135135,51.0302703 L8.0327027,50.7475676 Z" id="Fill-81" fill="#D3D2C9"></path>
                    <path d="M20.0279459,23.0031622 C20.2328108,22.5993784 20.4087568,22.1761351 20.5582162,21.7372162 C22.0787568,21.9345135 22.8757838,22.7553243 22.8757838,22.7553243 C30.6203784,21.3864054 34.1001081,25.403973 34.1001081,25.403973 L36.3084865,25.7196486 C36.8928108,26.6272162 34.559027,27.6969459 34.559027,27.6969459 C32.5017297,31.833973 29.4603784,33.4007297 24.8914595,31.2072162 C20.324973,29.0123514 22.1779459,23.9472162 22.1779459,23.9472162 C21.4195676,22.8312703 20.4184865,22.9166757 20.0279459,23.0031622" id="Fill-83" fill="#756A63"></path>
                    <path d="M11.5286757,19.6094595 C17.6073243,17.8143243 20.8257027,21.5689189 20.8257027,21.5689189 C22.6981351,21.6116216 23.6789459,22.6289189 23.6789459,22.6289189 C31.4224595,21.2591892 34.9040811,25.2775676 34.9040811,25.2775676 L37.1119189,25.5948649 C37.6970541,26.5013514 35.3624595,27.5713514 35.3624595,27.5713514 C33.3048919,31.7078378 30.2648919,33.2748649 25.6965135,31.0816216 C21.1289459,28.8862162 22.9816486,23.8205405 22.9816486,23.8205405 C22.020027,22.4056757 20.9513784,22.9245946 20.9513784,22.9245946 C19.420027,25.0343243 17.8665135,26.0094595 17.325973,26.317027 L17.325973,26.3181081 C17.325973,26.3181081 16.8865135,26.3694595 16.633,26.4 C16.5681351,26.4108108 16.3573243,26.4164865 16.2832703,26.4167568 C15.6338108,26.4478378 14.4862432,26.2835135 13.4357027,25.1597297 C13.4357027,25.1597297 13.3986757,25.1567568 13.3984054,25.1567568 C11.7205676,23.5283784 12.0024595,21.0932432 12.0024595,21.0932432 C11.173,20.5981081 11.5286757,19.6094595 11.5286757,19.6094595" id="Fill-85" fill="#000000"></path>
                    <path d="M34.5455946,25.8425676 C34.5455946,25.8425676 34.0888378,30.0417568 30.901,30.8393243 C27.7123514,31.6355405 23.5999189,29.3771622 23.6315405,26.5612162 C23.6315405,26.5612162 31.7350541,31.5058108 34.5455946,25.8425676" id="Fill-87" fill="#282828"></path>
                    <path d="M18.2165405,24.5957568 C18.2165405,24.5957568 16.1192432,26.3138649 14.4951892,25.2079189 C12.8703243,24.101973 12.6273514,21.9271081 12.6273514,21.9271081 C12.6273514,21.9271081 14.3508649,25.8003514 18.2165405,24.5957568" id="Fill-89" fill="#282828"></path>
                </g>
            </g>
        </g>
    </g>
</svg>