<?xml version="1.0" encoding="UTF-8"?>
<svg width="50px" height="100px" viewBox="0 0 50 100" version="1.1" xmlns="http://www.w3.org/2000/svg" xmlns:xlink="http://www.w3.org/1999/xlink">
    <!-- Generator: Sketch 52.5 (67469) - http://www.bohemiancoding.com/sketch -->
    <title>arrow</title>
    <desc>Created with Sketch.</desc>
    <g id="Landing" stroke="none" stroke-width="1" fill="none" fill-rule="evenodd">
        <g id="testimony" transform="translate(-1195.000000, -382.000000)">
            <g id="arrow" transform="translate(1195.000000, 382.000000)">
                <path d="M0,0 C27.3450618,0.315234509 49.4151141,22.5802488 49.4151141,50 C49.4151141,77.4197512 27.3450618,99.6847655 0,100 L0,0 Z" id="Path" fill="#FF7900" fill-rule="nonzero"></path>
                <g id="icon/arrow_right_inverse" transform="translate(0.000000, 30.000000)" fill="#FFFFFF">
                    <path d="M21.8794676,3.82123864 C21.2283463,3.17069823 20.1742291,3.17069823 19.524773,3.82123864 C18.8736517,4.47177906 18.8736517,5.52495574 19.524773,6.17383237 L30.2491247,16.9035897 C30.7736854,17.4276824 30.4023297,18.3361097 29.6612837,18.3361097 L5.02691496,18.3361097 C4.10768481,18.3361097 3.33333333,19.0681756 3.33333333,19.9865856 L3.33333333,19.9932408 C3.33333333,20.9116508 4.10768481,21.6636821 5.02691496,21.6636821 L29.6612837,21.6636821 C30.4023297,21.6636821 30.7736854,22.5471526 30.2491247,23.0712453 L19.4731496,33.8326146 C18.8220282,34.4814912 18.8220282,35.5313403 19.4731496,36.1818808 L19.4731496,36.180217 C20.1226057,36.8290936 21.1767228,36.8290936 21.8278442,36.1785532 L35.6912336,22.3275328 L35.6912336,22.3275328 C36.991811,21.0281158 36.991811,18.9200987 35.6912336,17.6206816 C35.3898194,17.3212001 21.5780534,3.52009334 21.8794676,3.82123864" id="arrow_right-[#363]"></path>
                </g>
            </g>
        </g>
    </g>
</svg>